<svg xmlns="http://www.w3.org/2000/svg" width="72" height="72" fill="none"><defs/><path fill="#313033" d="M0 0h72v72H0z"/><path fill="#FFDF27" d="M36.45 5C18.523 5 4 19.278 4 36.888c0 14.091 9.297 26.041 22.188 30.254 1.623.3 2.218-.687 2.218-1.533 0-.757-.027-2.764-.04-5.422-9.028 1.923-10.931-4.278-10.931-4.278-1.477-3.68-3.61-4.665-3.61-4.665-2.94-1.977.227-1.936.227-1.936 3.258.222 4.97 3.286 4.97 3.286 2.894 4.875 7.596 3.466 9.451 2.652.292-2.063 1.128-3.466 2.056-4.264-7.207-.798-14.782-3.54-14.782-15.757 0-3.48 1.258-6.325 3.34-8.556-.365-.806-1.46-4.049.284-8.44 0 0 2.718-.855 8.924 3.27 2.596-.71 5.354-1.06 8.112-1.077 2.759.016 5.517.368 8.113 1.076 6.166-4.124 8.883-3.27 8.883-3.27 1.745 4.392.65 7.635.325 8.44 2.069 2.232 3.326 5.076 3.326 8.557 0 12.25-7.585 14.946-14.805 15.73 1.135.957 2.19 2.912 2.19 5.9 0 4.268-.04 7.697-.04 8.732 0 .836.567 1.834 2.23 1.515 12.983-4.187 22.272-16.144 22.272-30.214C68.901 19.278 54.371 5 36.451 5z"/></svg>
