<svg xmlns="http://www.w3.org/2000/svg" width="127" height="182" fill="none">
  <defs/>
  <path fill="#313033" fill-rule="evenodd" d="M99.285 168.729a6.57 6.57 0 01-4.91-3.617L69.172 113.43l-6.307 14.825a6.541 6.541 0 01-7.023 3.906 6.566 6.566 0 01-5.258-4.494L16.896 22.117a6.55 6.55 0 017.232-8.476 6.572 6.572 0 014.815 3.428l28.39 53.794 5.367-16.6a6.556 6.556 0 016.322-4.539c.306.007.608.033.906.079a6.57 6.57 0 015.298 4.63l31.331 105.957a6.556 6.556 0 01-3.908 7.972 6.515 6.515 0 01-3.364.367z" clip-rule="evenodd"/>
  <path fill="#FFED83" fill-rule="evenodd" d="M24.632 15.193l33.688 105.55 11.935-28.042 31.503 64.609-31.33-105.953-10.141 31.382-35.655-67.546z" clip-rule="evenodd"/>
</svg>
