<svg xmlns="http://www.w3.org/2000/svg" width="72" height="72" fill="none"><defs/><path fill="#313033" d="M0 0h72v72H0z"/><path fill="#FFDF27" d="M63.813 16.994L69 12.076V11H51.033L38.228 42.588 23.66 11H4.82v1.076l6.06 7.229c.59.534.898 1.315.82 2.102v28.407a3.22 3.22 0 01-.875 2.818L4 60.83v1.063h19.351v-1.077l-6.825-8.184a3.321 3.321 0 01-.94-2.818V25.242l16.987 36.664h1.974l14.606-36.664V54.45c0 .77 0 .93-.509 1.434L43.39 60.92V62h25.49v-1.076l-5.064-4.915a1.487 1.487 0 01-.58-1.434V18.427a1.48 1.48 0 01.578-1.433z"/></svg>
