<svg width="573" height="573" viewBox="0 0 573 573" fill="none" xmlns="http://www.w3.org/2000/svg">
<g id="fon">
<rect width="573" height="573" fill="white"/>
<g id="fon 1">
<g clip-path="url(#clip0)">
<g id="Group">
<path id="Vector" d="M191.3 33C193.4 33.1 194.9 31.6 195 29.5C195 27.5 193.5 26 191.6 26C189.6 26 188.1 27.4 188 29.4C188 31.4 189.4 32.9 191.3 33Z" fill="#313033"/>
<path id="Vector_2" d="M165 33C166.7 33 168 31.7 168 29.9C168 28.2 166.7 27 165.1 27C163.4 27 162 28.2 162 30C162 31.7 163.3 33 165 33Z" fill="#313033"/>
<path id="Vector_3" d="M192.3 230.2C198.4 230.2 203.5 225.2 203.5 219.1C203.5 213.1 198.5 208.1 192.4 208.1C186.3 208.1 181.4 213.1 181.3 219.1C181.3 225.1 186.2 230.2 192.3 230.2Z" fill="#313033"/>
<path id="Vector_4" d="M192.1 174.5C197.3 174.7 201.7 170.6 201.9 165.3C202.1 160 198 155.6 192.6 155.4H192.3H192C187 155.5 183 159.5 182.8 164.6C182.6 170 186.8 174.4 192.1 174.5Z" fill="#313033"/>
<path id="Vector_5" d="M192.3 257.4C198.8 257.4 203.9 252.3 203.9 245.9C203.9 239.5 198.8 234.4 192.5 234.4C186 234.4 180.9 239.5 180.9 245.9C180.9 252.2 185.9 257.3 192.3 257.4Z" fill="#313033"/>
<path id="Vector_6" d="M192.3 62.3C195.1 62.4 197.5 60 197.5 57.2C197.5 54.5 195.2 52.1 192.4 52C189.6 51.9 187.2 54.3 187.2 57.1C187.2 59.9 189.5 62.2 192.3 62.3Z" fill="#313033"/>
<path id="Vector_7" d="M191.6 5C191.9 5 192.2 5 192.5 5C193 4.3 193.8 3.6 193.9 2.8C194.1 1.7 193.1 1 191.9 1C190.6 1 189.8 1.8 190 2.9C190.2 3.7 191.1 4.3 191.6 5Z" fill="#313033"/>
<path id="Vector_8" d="M192.4 90.5C196 90.5 198.8 87.7 198.7 84.1C198.7 80.5 195.9 77.7 192.3 77.8C188.7 77.8 185.9 80.6 186 84.2C186 87.8 188.8 90.6 192.4 90.5Z" fill="#313033"/>
<path id="Vector_9" d="M138 89C140.8 89 143 86.8 143 84C143 81.2 140.8 79 138 79C135.2 79 133 81.2 133 84C133 86.8 135.2 89 138 89Z" fill="#313033"/>
<path id="Vector_10" d="M192.4 118.5C196.6 118.5 200 115 200 110.9C200 106.8 196.6 103.4 192.5 103.4C188.4 103.4 184.9 106.8 184.8 111C184.7 115 188.2 118.5 192.4 118.5Z" fill="#313033"/>
<path id="Vector_11" d="M192.3 146.6C197 146.6 201 142.7 200.9 138C200.9 133.4 197.1 129.5 192.4 129.4H192.1H191.8C187.3 129.6 183.6 133.4 183.6 137.9C183.7 142.6 187.6 146.5 192.3 146.6Z" fill="#313033"/>
<path id="Vector_12" d="M165.5 228.9C171.2 228.9 175.8 224.4 175.7 218.7C175.7 213.1 171.2 208.6 165.5 208.6C159.8 208.6 155.4 213.1 155.4 218.7C155.4 224.4 159.9 228.9 165.5 228.9Z" fill="#313033"/>
<path id="Vector_13" d="M165.7 201.7C171 201.7 175.3 197.3 175.3 192.1C175.3 186.8 170.9 182.5 165.6 182.6C160.3 182.6 156 187 156 192.2C156 197.4 160.4 201.7 165.7 201.7Z" fill="#313033"/>
<path id="Vector_14" d="M165.5 61C167.9 61 169.9 59 170 56.6C170.1 54.1 168 52 165.5 52C163.1 52 161.1 54 161 56.4C160.9 58.9 163 61 165.5 61Z" fill="#313033"/>
<path id="Vector_15" d="M138.5 60C140.5 60 142 58.5 142 56.5C142 54.5 140.5 53 138.6 53C136.5 53 135 54.5 135 56.6C135 58.5 136.5 60 138.5 60Z" fill="#313033"/>
<path id="Vector_16" d="M137.8 32C139 32 139.8 31.4 139.9 30.2C140 29 139.3 28.2 138.1 28.1C136.9 27.9 135.9 28.8 135.9 30C136 31.1 136.7 31.8 137.8 32Z" fill="#313033"/>
<path id="Vector_17" d="M165.2 256.4C171.1 256.4 175.8 251.8 175.8 245.9C175.8 240.1 171.2 235.3 165.3 235.3C159.4 235.3 154.7 239.9 154.7 245.8C154.7 251.7 159.3 256.4 165.2 256.4Z" fill="#313033"/>
<path id="Vector_18" d="M172.519 110.953C172.55 107.142 169.485 104.028 165.674 103.998C161.863 103.968 158.75 107.032 158.719 110.843C158.689 114.654 161.754 117.768 165.564 117.798C169.375 117.828 172.489 114.764 172.519 110.953Z" fill="#313033"/>
<path id="Vector_19" d="M165.6 90C168.8 90 171.5 87.3 171.4 84.1C171.3 80.9 168.6 78.3 165.5 78.4C162.4 78.5 159.8 81.1 159.8 84.2C159.8 87.3 162.5 90 165.6 90Z" fill="#313033"/>
<path id="Vector_20" d="M165.5 173.8C170.4 173.8 174.3 170 174.3 165.1C174.3 160.2 170.5 156.3 165.5 156.3C160.6 156.3 156.8 160.1 156.7 164.9C156.8 169.8 160.6 173.7 165.5 173.8Z" fill="#313033"/>
<path id="Vector_21" d="M165.7 145.9C170 145.9 173.6 142.2 173.6 137.9C173.6 133.6 169.9 130 165.6 130C161.3 130 157.7 133.7 157.7 138C157.7 142.3 161.3 145.9 165.7 145.9Z" fill="#313033"/>
<path id="Vector_22" d="M192.4 202.5C198.1 202.5 202.8 197.7 202.7 192.1C202.7 186.4 197.9 181.7 192.3 181.8C186.6 181.8 181.9 186.6 182 192.2C182 197.8 186.7 202.5 192.4 202.5Z" fill="#313033"/>
<path id="Vector_23" d="M246.6 119.3C251.3 119.3 254.9 115.6 254.9 110.9C254.9 106.2 251.2 102.5 246.5 102.5C241.8 102.5 238.1 106.1 238.1 110.8C238.1 115.6 241.9 119.3 246.6 119.3Z" fill="#313033"/>
<path id="Vector_24" d="M246.4 175.5C252.3 175.6 257 171 257.1 165.1C257.1 159.3 252.6 154.6 246.7 154.5C240.8 154.4 236.1 159 236 164.9C236 170.8 240.6 175.4 246.4 175.5Z" fill="#313033"/>
<path id="Vector_25" d="M246.6 259C254.4 259 259.6 253.2 259.8 245.9C260 238.8 253.8 232.8 246.7 232.7C239.5 232.7 233.5 238.6 233.5 245.8C233.4 252.4 238.2 259 246.6 259Z" fill="#313033"/>
<path id="Vector_26" d="M246.4 231.6C253.2 231.7 258.9 226 259 219.2C259 212.5 253.5 206.8 246.7 206.7H246.4H246.1C239.6 206.9 234.2 212.4 234.1 219.1C234.1 225.9 239.7 231.5 246.4 231.6Z" fill="#313033"/>
<path id="Vector_27" d="M246.6 203.6C253 203.6 258.1 198.5 258.1 192.2C258.1 185.8 253 180.6 246.6 180.6C240.2 180.6 235.1 185.7 235.1 192C235 198.5 240.1 203.6 246.6 203.6Z" fill="#313033"/>
<path id="Vector_28" d="M246.2 147.5C251.5 147.7 255.9 143.6 256.1 138.2C256.3 133 252.2 128.7 246.9 128.4H246.6H246.3C241.3 128.5 237.1 132.5 237 137.7C236.9 142.9 241 147.3 246.2 147.5Z" fill="#313033"/>
<path id="Vector_29" d="M246.4 34C248.8 34 250.9 32.1 251 29.7C251.1 27.2 249.1 25.1 246.6 25C244.2 25 242.1 26.9 242 29.3C241.9 31.8 243.9 33.9 246.4 34Z" fill="#313033"/>
<path id="Vector_30" d="M246.4 5C247.7 5 248.9 3.9 249 2.6C249.1 1.3 247.9 0 246.6 0C245.3 0 244.1 1.1 244 2.4C243.9 3.7 245.1 5 246.4 5Z" fill="#313033"/>
<path id="Vector_31" d="M246.5 91.4C250.5 91.4 253.8 88.2 253.9 84.2C253.9 80.2 250.7 76.9 246.7 76.9C242.7 76.9 239.4 80.1 239.3 84.1C239.2 88.1 242.5 91.4 246.5 91.4Z" fill="#313033"/>
<path id="Vector_32" d="M246.6 63C249.9 63 252.5 60.4 252.5 57C252.5 53.7 249.8 51.1 246.5 51.1C243.2 51.1 240.6 53.7 240.6 57.1C240.6 60.5 243.3 63.1 246.6 63Z" fill="#313033"/>
<path id="Vector_33" d="M219.4 285.7C226.4 285.7 232.2 280 232.3 272.9C232.3 265.9 226.5 260.1 219.5 260.1C212.5 260.1 206.7 265.9 206.7 272.9C206.7 279.9 212.4 285.7 219.4 285.7Z" fill="#313033"/>
<path id="Vector_34" d="M219.4 203.1C225.4 203.1 230.5 198.1 230.5 192.1C230.5 186.1 225.6 181 219.5 181C213.5 180.9 208.4 185.9 208.3 191.9C208.3 198 213.3 203.1 219.4 203.1Z" fill="#313033"/>
<path id="Vector_35" d="M219.5 175.1C225.1 175.1 229.6 170.6 229.6 164.9C229.6 159.3 225.1 154.8 219.4 154.9C213.8 154.9 209.3 159.4 209.3 165.1C209.4 170.7 213.9 175.1 219.5 175.1Z" fill="#313033"/>
<path id="Vector_36" d="M219.5 5C220.8 5 222 3.9 222 2.6C222.1 1.2 220.8 0 219.5 0C218.2 0 217 1.2 217 2.5C217 3.8 218.1 5 219.5 5Z" fill="#313033"/>
<path id="Vector_37" d="M219.4 258.3C226.2 258.3 231.8 252.8 231.9 246C232 239.2 226.3 233.5 219.5 233.5C212.7 233.5 207.1 239 207.1 245.8C207 252.6 212.6 258.3 219.4 258.3Z" fill="#313033"/>
<path id="Vector_38" d="M219.5 147.1C224.6 147.1 228.6 143 228.6 137.9C228.6 132.8 224.5 128.8 219.4 128.8C214.3 128.8 210.3 132.9 210.3 138C210.4 143.1 214.4 147.1 219.5 147.1Z" fill="#313033"/>
<path id="Vector_39" d="M219.4 230.9C225.9 230.9 231.2 225.6 231.2 219.1C231.2 212.6 225.9 207.3 219.4 207.3C212.9 207.3 207.6 212.6 207.6 219.1C207.6 225.6 212.9 230.9 219.4 230.9Z" fill="#313033"/>
<path id="Vector_40" d="M219 34C221.2 34 223 32.2 223 30C223 27.9 221.2 26.1 219.1 26C216.9 25.9 215 27.7 215 29.9C215 32.1 216.8 34 219 34Z" fill="#313033"/>
<path id="Vector_41" d="M219.4 118.9C223.9 118.9 227.5 115.4 227.5 110.9C227.5 106.4 224 102.8 219.6 102.8C215.1 102.7 211.5 106.2 211.4 110.7C211.3 115.3 214.9 118.9 219.4 118.9Z" fill="#313033"/>
<path id="Vector_42" d="M219.5 62.7C222.6 62.7 225.1 60.2 225 57.1C225 54 222.5 51.5 219.4 51.5C216.2 51.5 213.7 54 213.8 57.2C213.9 60.3 216.4 62.7 219.5 62.7Z" fill="#313033"/>
<path id="Vector_43" d="M219.4 91.1C223.1 91.1 226.3 88 226.3 84.3C226.4 80.5 223.2 77.3 219.4 77.3C215.7 77.3 212.5 80.4 212.5 84.1C212.5 87.8 215.7 91.1 219.4 91.1Z" fill="#313033"/>
<path id="Vector_44" d="M111.4 59C112.9 59 114 58 114 56.5C114 55 112.9 54 111.5 54C110.1 54 109.1 55 109 56.4C108.9 57.8 110 59 111.4 59Z" fill="#313033"/>
<path id="Vector_45" d="M30.5 277C33.1 277 35.1 275 35 272.4C35 269.9 33 268 30.5 268C28 268 26 270 26 272.5C26 275 28 277 30.5 277Z" fill="#313033"/>
<path id="Vector_46" d="M30.5 250C33.1 250 35.1 248 35 245.5C35 243 33 241.1 30.5 241C27.9 241 25.9 243 26 245.5C26 248 28 250 30.5 250Z" fill="#313033"/>
<path id="Vector_47" d="M29.8999 223C32.0999 223 33.9999 221.2 33.9999 219C33.9999 216.8 32.1999 215 29.9999 215C27.8999 215 26.0999 216.7 25.9999 218.9C25.8999 221.1 27.6999 222.9 29.8999 223Z" fill="#313033"/>
<path id="Vector_48" d="M2.8 194C3.6 193.9 4.2 193 5 192.5V191.6C4.3 191.1 3.6 190.2 2.8 190.1C1.7 189.9 1 190.8 1 192.1C1 193.3 1.7 194.2 2.8 194Z" fill="#313033"/>
<path id="Vector_49" d="M1 218.5C1 219.8 2.2 221 3.5 221C4.8 221 6 219.9 6 218.6C6 217.3 4.9 216.1 3.6 216C2.2 215.9 1 217.2 1 218.5Z" fill="#313033"/>
<path id="Vector_50" d="M30.4 195C32.3 195.1 34 193.4 34 191.5C34 189.7 32.5 188 30.6 188C28.7 187.9 27 189.6 27 191.5C27 193.3 28.5 194.9 30.4 195Z" fill="#313033"/>
<path id="Vector_51" d="M29.9 140C31.1 140.1 32.1 139.2 32 138C32 136.8 31.3 136.1 30.1 136C28.9 136.1 28.1 136.7 28 137.9C27.9 139.1 28.6 139.9 29.9 140Z" fill="#313033"/>
<path id="Vector_52" d="M57.2 186.9C54.5 186.9 52.1 189.2 52 191.9C51.9 194.7 54.3 197.1 57.1 197.2C59.8 197.2 62.2 194.9 62.3 192.2C62.4 189.4 60 186.9 57.2 186.9Z" fill="#313033"/>
<path id="Vector_53" d="M57.2 224.4C60.3 224.4 62.8 222 62.8 218.8C62.8 215.7 60.4 213.2 57.3 213.2C54.1 213.2 51.6 215.6 51.6 218.9C51.6 222 54.1 224.4 57.2 224.4Z" fill="#313033"/>
<path id="Vector_54" d="M56.3 169C58.8 169.1 60.9 167.1 61 164.6C61.1 162.2 59.1 160.1 56.7 160C54.2 159.9 52.1 161.9 52 164.4C51.9 166.7 53.9 168.9 56.3 169Z" fill="#313033"/>
<path id="Vector_55" d="M57.2 251.8C60.5 251.8 63.2 249.2 63.2 245.9C63.2 242.6 60.6 240 57.3 239.9C54 239.9 51.3 242.5 51.3 245.8C51.3 249.2 53.9 251.8 57.2 251.8Z" fill="#313033"/>
<path id="Vector_56" d="M2.89997 249C4.59997 249.1 5.99997 247.8 5.99997 246.1C5.99997 244.4 4.69997 243 2.99997 243C1.29997 243 0.0999715 244.2 -2.85376e-05 245.8C-0.100029 247.6 1.19997 248.9 2.89997 249Z" fill="#313033"/>
<path id="Vector_57" d="M30 168C31.6 168 33 166.7 33 165.1C33 163.5 31.7 162.1 30.1 162C28.5 161.9 27.1 163.3 27 164.8C26.9 166.5 28.3 168 30 168Z" fill="#313033"/>
<path id="Vector_58" d="M29.9999 350C27.8999 350 26.0999 351.7 25.9999 353.8C25.8999 356 27.6999 357.9 29.8999 358C32.0999 358.1 33.9999 356.3 33.9999 354.1C33.9999 351.9 32.1999 350 29.9999 350Z" fill="#313033"/>
<path id="Vector_59" d="M30.5 323C27.9 323 26 325 26 327.6C26 330.1 28 332 30.5 332C33.1 332 35 330 35 327.4C35 324.9 33 323 30.5 323Z" fill="#313033"/>
<path id="Vector_60" d="M30 405C28.4 405 27 406.3 27 407.9C27 409.5 28.4 411 30.1 411C31.7 411 33.1 409.6 33 408C33 406.4 31.6 405 30 405Z" fill="#313033"/>
<path id="Vector_61" d="M29.6 377C27.7 376.9 26 378.6 26 380.5C26 382.3 27.5 384 29.4 384C31.3 384.1 33 382.4 33 380.5C33 378.7 31.5 377.1 29.6 377Z" fill="#313033"/>
<path id="Vector_62" d="M138.3 117C141.7 117.1 144.6 114.3 144.6 110.9C144.6 107.6 141.9 104.8 138.6 104.8C135.3 104.7 132.5 107.5 132.4 110.8C132.3 114.1 135 116.9 138.3 117Z" fill="#313033"/>
<path id="Vector_63" d="M30.6 295C28.1 295 26.1 296.9 26 299.4C25.9 302 27.9 304 30.5 304C33 304 35 302 35 299.5C35 297 33.1 295 30.6 295Z" fill="#313033"/>
<path id="Vector_64" d="M56.4 459C55.1 459 54 460.2 54 461.5C54 462.8 55.2 464.1 56.6 464C57.9 464 59 462.8 59 461.5C59 460.2 57.8 459 56.4 459Z" fill="#313033"/>
<path id="Vector_65" d="M1 381C1 382.3 1.7 383.2 2.8 383C3.6 382.9 4.3 382 5 381.5C5 381.2 5 380.9 5 380.6C4.3 380.1 3.6 379.2 2.9 379C1.7 378.8 1 379.7 1 381Z" fill="#313033"/>
<path id="Vector_66" d="M30.1 433C28.9 432.9 28 433.8 28 435C28 436.2 28.8 436.9 29.8 437C31.1 437 32 436.2 32 435.1C32 433.8 31.3 433.1 30.1 433Z" fill="#313033"/>
<path id="Vector_67" d="M5.99997 327C5.99997 325.3 4.69997 324 2.89997 324C1.19997 324 -0.100029 325.4 -2.85376e-05 327.1C0.0999715 328.7 1.29997 330 2.99997 330C4.69997 330 5.99997 328.7 5.99997 327Z" fill="#313033"/>
<path id="Vector_68" d="M3.6 351C2.1 350.9 1 352 1 353.4C1 354.9 2 356 3.4 356C4.9 356 5.9 355 5.9 353.5C6 352.1 5 351.1 3.6 351Z" fill="#313033"/>
<path id="Vector_69" d="M2.99997 297C1.39997 297 -2.64291e-05 298.3 -2.64291e-05 299.9C-0.100026 301.5 1.39997 303 2.99997 303C4.59997 303 5.99997 301.6 5.99997 300C5.99997 298.4 4.59997 297 2.99997 297Z" fill="#313033"/>
<path id="Vector_70" d="M-2.05599e-05 272.8C-0.100021 274.4 1.29998 275.9 2.99998 276C4.59998 276 5.99998 274.7 5.99998 273.1C5.99998 271.5 4.69998 270.1 3.09998 270C1.59998 269.9 0.0999794 271.3 -2.05599e-05 272.8Z" fill="#313033"/>
<path id="Vector_71" d="M111.4 199.7C115.6 199.7 119 196.3 119.1 192.2C119.1 188 115.8 184.5 111.6 184.5C107.4 184.4 103.9 187.8 103.8 191.9C103.7 196.2 107.1 199.7 111.4 199.7Z" fill="#313033"/>
<path id="Vector_72" d="M273.5 231.9C280.3 232.1 286.4 226.1 286.4 219.2C286.5 212.3 280.8 206.5 273.8 206.4H273.5H273.2C266.6 206.6 261.1 212.1 260.9 218.9C260.7 225.8 266.5 231.8 273.5 231.9Z" fill="#313033"/>
<path id="Vector_73" d="M111.3 116C114.1 116.1 116.5 113.6 116.5 110.8C116.5 108.1 114.2 105.7 111.4 105.7C108.6 105.6 106.2 108.1 106.2 110.9C106.3 113.7 108.6 116 111.3 116Z" fill="#313033"/>
<path id="Vector_74" d="M138.5 282.7C143.9 282.7 148.2 278.4 148.2 273C148.2 267.5 143.9 263.2 138.4 263.2C133 263.2 128.7 267.5 128.7 272.9C128.7 278.3 133.1 282.7 138.5 282.7Z" fill="#313033"/>
<path id="Vector_75" d="M111.4 144.1C114.7 144.1 117.5 141.4 117.6 138.1C117.7 134.7 114.8 131.9 111.4 131.9C108.1 131.9 105.3 134.7 105.3 138C105.3 141.3 108 144 111.4 144.1Z" fill="#313033"/>
<path id="Vector_76" d="M111.3 172C115.1 172 118.3 169 118.3 165.1C118.3 161.3 115.3 158.1 111.4 158.1C107.6 158.1 104.4 161.1 104.4 165C104.4 168.8 107.5 171.9 111.3 172Z" fill="#313033"/>
<path id="Vector_77" d="M56.7 431C54.8 430.9 53.1 432.5 53 434.4C52.9 436.2 54.5 437.9 56.3 438C58.2 438.1 59.9 436.5 60 434.6C60.1 432.7 58.5 431.1 56.7 431Z" fill="#313033"/>
<path id="Vector_78" d="M138.5 145C142.4 145 145.5 141.9 145.5 137.9C145.5 134 142.4 130.9 138.4 130.9C134.5 130.9 131.4 134 131.4 138C131.5 141.9 134.6 145 138.5 145Z" fill="#313033"/>
<path id="Vector_79" d="M138.6 173C142.9 173 146.5 169.3 146.5 165C146.5 160.7 142.8 157.1 138.5 157.1C134.2 157.1 130.6 160.8 130.6 165.1C130.6 169.4 134.3 173 138.6 173Z" fill="#313033"/>
<path id="Vector_80" d="M138.5 200.7C143.2 200.7 147.1 196.8 147.1 192.1C147.1 187.4 143.2 183.5 138.5 183.4C133.8 183.4 129.8 187.2 129.8 191.9C129.8 196.7 133.7 200.7 138.5 200.7Z" fill="#313033"/>
<path id="Vector_81" d="M138.4 255.5C143.6 255.6 148 251.2 148.1 246C148.2 240.8 143.8 236.4 138.6 236.3C133.4 236.3 129 240.6 128.9 245.8C128.8 251 133.2 255.4 138.4 255.5Z" fill="#313033"/>
<path id="Vector_82" d="M138.6 228C143.7 227.9 147.7 223.8 147.7 218.8C147.7 213.7 143.6 209.7 138.5 209.7C133.4 209.7 129.2 213.8 129.3 218.9C129.4 224 133.5 228.1 138.6 228Z" fill="#313033"/>
<path id="Vector_83" d="M84.3 253.1C88.3 253.1 91.6 249.8 91.6 245.9C91.6 241.9 88.3 238.6 84.4 238.6C80.4 238.6 77.1 241.9 77.1 245.8C77 249.8 80.3 253.1 84.3 253.1Z" fill="#313033"/>
<path id="Vector_84" d="M84.3 198.6C87.8 198.6 90.8 195.6 90.8 192.1C90.8 188.6 87.8 185.6 84.2 185.6C80.7 185.7 77.8 188.5 77.8 192C77.8 195.5 80.7 198.6 84.3 198.6Z" fill="#313033"/>
<path id="Vector_85" d="M84.3423 225.704C88.153 225.681 91.224 222.574 91.2014 218.763C91.1789 214.952 88.0714 211.881 84.2606 211.904C80.4498 211.926 77.3789 215.034 77.4014 218.845C77.424 222.655 80.5315 225.726 84.3423 225.704Z" fill="#313033"/>
<path id="Vector_86" d="M56.5 113C58 113 59 111.9 59 110.4C59 109 57.9 107.9 56.4 108C55 108 54 109.1 54 110.5C54 111.9 55.1 113 56.5 113Z" fill="#313033"/>
<path id="Vector_87" d="M56.3 141C58.2 141.1 59.9 139.5 60 137.6C60 135.8 58.5 134.1 56.7 134C54.8 133.9 53.1 135.5 53 137.4C53 139.3 54.5 140.9 56.3 141Z" fill="#313033"/>
<path id="Vector_88" d="M84.2999 170.8C87.4999 170.8 90.1999 168.1 90.0999 164.9C90.0999 161.8 87.4999 159.2 84.3999 159.1C81.1999 159 78.4999 161.7 78.4999 164.9C78.3999 168.1 81.0999 170.8 84.2999 170.8Z" fill="#313033"/>
<path id="Vector_89" d="M111.1 254.3C115.8 254.4 119.7 250.8 119.8 246.1C119.9 241.4 116.3 237.5 111.5 237.4H111.2H110.9C106.5 237.6 102.9 241 102.8 245.5C102.8 250.3 106.4 254.2 111.1 254.3Z" fill="#313033"/>
<path id="Vector_90" d="M111.4 281.6C116.2 281.6 120.1 277.6 120.1 272.8C120 268.1 116.1 264.2 111.4 264.3C106.7 264.3 102.8 268.3 102.8 273C102.8 277.7 106.7 281.6 111.4 281.6Z" fill="#313033"/>
<path id="Vector_91" d="M111.5 226.9C116 226.9 119.5 223.3 119.4 218.8C119.4 214.3 115.8 210.8 111.3 210.8C106.8 210.8 103.3 214.3 103.3 218.8C103.3 223.4 106.9 226.9 111.5 226.9Z" fill="#313033"/>
<path id="Vector_92" d="M84 143C86.8 143 89 140.8 89 138C89 135.2 86.8 133 84 133C81.2 133 79 135.2 79 138C79 140.9 81.2 143 84 143Z" fill="#313033"/>
<path id="Vector_93" d="M83.8 115C86.1 115.1 87.9 113.4 88 111.1C88 108.9 86.4 107.1 84.2 107C81.9 106.9 80.1 108.6 80 110.9C80 113.2 81.6 114.9 83.8 115Z" fill="#313033"/>
<path id="Vector_94" d="M83.5 87C84.8 87 86 85.9 86 84.6C86 83.3 84.9 82 83.5 82C82.2 82 81 83.1 81 84.4C80.9 85.8 82.2 87 83.5 87Z" fill="#313033"/>
<path id="Vector_95" d="M111 88C113.2 88 115 86.3 115 84.1C115 81.8 113.3 80 111 80C108.8 80 107 81.7 107 83.9C107 86.2 108.7 88 111 88Z" fill="#313033"/>
<path id="Vector_96" d="M435 32C436.3 32 437.2 31.3 437 30.2C436.9 29.4 436 28.7 435.5 28C435.2 28 434.9 28 434.6 28C434.1 28.7 433.2 29.4 433 30.1C432.8 31.3 433.7 32 435 32Z" fill="#313033"/>
<path id="Vector_97" d="M435.3 60C437.3 60.1 438.9 58.7 439 56.7C439.1 54.6 437.6 53 435.6 53C433.6 53 432.1 54.4 432 56.4C431.9 58.3 433.4 59.9 435.3 60Z" fill="#313033"/>
<path id="Vector_98" d="M435.1 89C437.9 89 440.1 86.8 440 83.9C440 81.1 437.8 78.9 434.9 79C432.1 79 429.9 81.2 430 84.1C430 86.9 432.2 89 435.1 89Z" fill="#313033"/>
<path id="Vector_99" d="M435.6 145C439.6 145 442.7 141.9 442.7 138C442.7 134.1 439.6 131 435.7 130.9C431.7 130.9 428.6 134 428.6 137.9C428.5 141.9 431.6 145 435.6 145Z" fill="#313033"/>
<path id="Vector_100" d="M435.4 117.4C438.8 117.5 441.7 114.7 441.7 111.3C441.7 108 439 105.2 435.6 105.2C432.3 105.2 429.5 107.9 429.4 111.2C429.4 114.4 432.1 117.2 435.4 117.4Z" fill="#313033"/>
<path id="Vector_101" d="M462.6 171.9C466.3 172 469.5 168.9 469.6 165.2C469.7 161.4 466.6 158.2 462.8 158.1C459.1 158.1 455.9 161.1 455.8 164.8C455.7 168.6 458.8 171.9 462.6 171.9Z" fill="#313033"/>
<path id="Vector_102" d="M462.7 254.2C467.4 254.2 471.1 250.5 471.1 245.8C471.1 241.1 467.4 237.4 462.8 237.4C458.1 237.4 454.4 241 454.3 245.7C454.2 250.5 457.9 254.3 462.7 254.2Z" fill="#313033"/>
<path id="Vector_103" d="M435.6 172.9C439.9 172.9 443.5 169.3 443.5 165C443.5 160.7 440 157.2 435.7 157.1C431.4 157.1 427.8 160.6 427.8 164.9C427.6 169.2 431.3 172.9 435.6 172.9Z" fill="#313033"/>
<path id="Vector_104" d="M462.6 143.9C466 144 468.7 141.4 468.7 138C468.7 134.6 466.1 131.9 462.7 131.9C459.4 131.9 456.7 134.4 456.7 137.7C456.6 141.2 459.2 143.9 462.6 143.9Z" fill="#313033"/>
<path id="Vector_105" d="M461.9 116C464.7 116 466.9 113.8 467 111C467 108.2 464.7 106 462 106C459.2 106 457 108.3 457 111.1C457 113.8 459.2 116 461.9 116Z" fill="#313033"/>
<path id="Vector_106" d="M462.6 227.2C467.1 227.2 470.7 223.7 470.7 219.2C470.7 214.7 467.2 211.1 462.7 211.1C458.2 211.1 454.7 214.7 454.7 219.2C454.7 223.6 458.2 227.1 462.6 227.2Z" fill="#313033"/>
<path id="Vector_107" d="M462.5 199.7C466.6 199.8 470.2 196.4 470.2 192.2C470.3 188.1 466.8 184.5 462.7 184.5C458.6 184.5 455.1 187.9 455 192.1C455.1 196.1 458.4 199.6 462.5 199.7Z" fill="#313033"/>
<path id="Vector_108" d="M408.7 173.7C413.6 173.7 417.5 169.9 417.5 165C417.5 160.2 413.6 156.3 408.8 156.3C403.9 156.3 400.1 160.1 400.1 165C400.1 169.8 403.9 173.7 408.7 173.7Z" fill="#313033"/>
<path id="Vector_109" d="M408.9 145.8C413.2 145.7 416.7 142.1 416.7 137.8C416.6 133.5 413.1 130 408.8 130C404.5 130 400.9 133.6 400.9 137.9C400.9 142.3 404.6 145.9 408.9 145.8Z" fill="#313033"/>
<path id="Vector_110" d="M408.8 118.1C412.5 118.1 415.6 115 415.7 111.3C415.8 107.5 412.6 104.3 408.8 104.3C405.1 104.3 402 107.4 401.9 111.1C401.9 114.9 405 118.1 408.8 118.1Z" fill="#313033"/>
<path id="Vector_111" d="M408.6 229.2C414.3 229.3 418.9 224.8 418.9 219.3C418.9 213.7 414.5 209.2 409 209.1C403.3 209 398.7 213.5 398.7 219C398.7 224.6 403.1 229.1 408.6 229.2Z" fill="#313033"/>
<path id="Vector_112" d="M408.8 201.5C414.1 201.5 418.3 197.3 418.3 192.1C418.3 186.8 414.1 182.6 408.9 182.6C403.6 182.6 399.4 186.8 399.4 192C399.4 197.4 403.5 201.5 408.8 201.5Z" fill="#313033"/>
<path id="Vector_113" d="M408.5 61C411 61 413.1 58.9 413 56.4C412.9 54 410.9 52 408.5 52C406 52 403.9 54.1 404 56.6C404 59 406.1 61 408.5 61Z" fill="#313033"/>
<path id="Vector_114" d="M435.6 255.3C440.9 255.3 445 251.1 445 245.8C445 240.5 440.8 236.4 435.5 236.4C430.2 236.4 426.1 240.6 426.1 245.9C426.1 251.2 430.3 255.3 435.6 255.3Z" fill="#313033"/>
<path id="Vector_115" d="M435.7 228.3C440.8 228.3 444.8 224.2 444.7 219.1C444.7 214 440.6 210 435.5 210.1C430.4 210.1 426.4 214.2 426.5 219.3C426.5 224.3 430.5 228.3 435.7 228.3Z" fill="#313033"/>
<path id="Vector_116" d="M435.6 200.7C440.3 200.7 444.2 196.7 444.2 192C444.1 187.3 440.3 183.5 435.6 183.5C430.9 183.5 426.9 187.4 426.9 192.1C427 196.8 430.9 200.7 435.6 200.7Z" fill="#313033"/>
<path id="Vector_117" d="M407.9 33C409.6 33 411 31.8 411 30.1C411 28.4 409.8 27.1 408.2 27.1C406.5 27 405.1 28.2 405 29.9C404.9 31.6 406.2 32.9 407.9 33Z" fill="#313033"/>
<path id="Vector_118" d="M408.5 89.9C411.7 90.1 414.3 87.7 414.5 84.5C414.6 81.3 412.2 78.7 409 78.6H408.8H408.6C405.7 78.7 403.3 81 403.1 84C402.9 87 405.3 89.7 408.5 89.9Z" fill="#313033"/>
<path id="Vector_119" d="M488.9 115C491.2 115.1 493 113.4 493 111.1C493 108.9 491.4 107.1 489.1 107C486.8 106.9 485 108.6 485 110.9C485 113.2 486.6 114.9 488.9 115Z" fill="#313033"/>
<path id="Vector_120" d="M543 223C545.2 223 547 221.2 547 219C547 216.8 545.1 215 542.9 215C540.8 215 539 216.8 539 219C539 221.2 540.8 223 543 223Z" fill="#313033"/>
<path id="Vector_121" d="M543.5 242C541 242 538.9 244.1 539 246.6C539 249 541.1 251 543.5 251C546 251 548.1 248.9 548 246.4C548 244 545.9 242 543.5 242Z" fill="#313033"/>
<path id="Vector_122" d="M516.4 114C517.9 114.1 519 113 519 111.6C519 110.1 518 109.1 516.5 109C515.1 109 514.1 110 514 111.4C513.9 112.8 515 113.9 516.4 114Z" fill="#313033"/>
<path id="Vector_123" d="M516.5 169C518.9 169 520.9 167 521 164.6C521.1 162.1 519 160 516.5 160C514.1 160 512.1 162 512 164.4C511.9 166.9 514 169 516.5 169Z" fill="#313033"/>
<path id="Vector_124" d="M462 88C464.2 88 466 86.3 466 84.1C466.1 81.8 464.3 80 462 80C459.8 80 458 81.7 458 83.9C457.9 86.2 459.7 88 462 88Z" fill="#313033"/>
<path id="Vector_125" d="M542.8 168C544.5 168.1 545.9 166.8 546 165.1C546.1 163.4 544.8 162 543.1 162C541.4 162 540 163.2 540 165C540 166.6 541.2 167.9 542.8 168Z" fill="#313033"/>
<path id="Vector_126" d="M542.4 140C542.7 140 543 140 543.3 140C543.9 139.3 544.8 138.7 544.9 137.9C545.2 136.8 544.3 136 543 136C541.7 136 540.8 136.6 540.9 137.8C541.1 138.5 541.9 139.2 542.4 140Z" fill="#313033"/>
<path id="Vector_127" d="M569.8 194C570.6 193.9 571.2 193 572 192.5C572 192.2 572 191.9 572 191.6C571.3 191.1 570.6 190.2 569.8 190.1C568.7 189.9 568 190.8 568 192.1C568 193.3 568.7 194.2 569.8 194Z" fill="#313033"/>
<path id="Vector_128" d="M568 219.4C567.9 220.8 569.1 222 570.5 222C571.8 222 573 220.9 573 219.6C573 218.3 571.9 217.1 570.6 217C569.3 216.9 568.1 218 568 219.4Z" fill="#313033"/>
<path id="Vector_129" d="M570.4 249C571.7 249 573 247.8 573 246.5C573 245.2 571.9 244 570.6 244C569.3 244 568 245.2 568 246.5C568 247.8 569.1 248.9 570.4 249Z" fill="#313033"/>
<path id="Vector_130" d="M540 191.4C539.9 193.5 541.4 195 543.5 195C545.5 195 547 193.5 547 191.6C547 189.6 545.6 188.1 543.6 188C541.6 188 540.1 189.4 540 191.4Z" fill="#313033"/>
<path id="Vector_131" d="M516.4 141C518.5 141.1 520 139.5 520 137.5C520 135.5 518.5 134 516.5 134C514.5 134 513 135.4 513 137.4C513 139.4 514.4 140.9 516.4 141Z" fill="#313033"/>
<path id="Vector_132" d="M489.8 198.4C493.4 198.4 496.1 195.5 496.1 192C496.1 188.4 493.2 185.7 489.7 185.7C486.1 185.7 483.3 188.6 483.4 192.1C483.4 195.7 486.3 198.5 489.8 198.4Z" fill="#313033"/>
<path id="Vector_133" d="M489.8 226C493.5 226 496.7 222.9 496.7 219.2C496.8 215.4 493.6 212.2 489.8 212.2C486.1 212.2 482.9 215.3 482.9 219C482.8 222.8 486 226 489.8 226Z" fill="#313033"/>
<path id="Vector_134" d="M462.3 59C463.8 59.1 464.9 58.1 465 56.6C465.1 55.1 464 54 462.6 54C461.1 54 460 55 460 56.5C460 57.9 461 58.9 462.3 59Z" fill="#313033"/>
<path id="Vector_135" d="M490.1 159.3H489.9H489.7C486.7 159.4 484.3 161.7 484.2 164.7C484.1 167.9 486.5 170.5 489.7 170.6C492.8 170.7 495.4 168.4 495.6 165.2C495.7 162.2 493.3 159.5 490.1 159.3Z" fill="#313033"/>
<path id="Vector_136" d="M489.8 253.1C493.8 253.1 497.1 249.7 497 245.8C496.9 241.9 493.6 238.6 489.7 238.7C485.8 238.8 482.5 242.1 482.5 246C482.6 249.8 485.9 253.1 489.8 253.1Z" fill="#313033"/>
<path id="Vector_137" d="M408.9 256.4C414.7 256.4 419.3 251.8 419.4 245.9C419.4 240 414.7 235.3 408.8 235.4C403 235.4 398.4 240 398.3 245.9C398.3 251.7 403 256.4 408.9 256.4Z" fill="#313033"/>
<path id="Vector_138" d="M517 213.6C513.9 213.5 511.3 216 511.3 219.1C511.3 222.1 513.7 224.6 516.7 224.7C519.8 224.8 522.4 222.3 522.4 219.2C522.5 216.2 520 213.7 517 213.6Z" fill="#313033"/>
<path id="Vector_139" d="M488.9 143C491.7 143 494 140.9 494 138.1C494 135.3 491.9 133 489.1 133C486.3 133 484 135.1 484 137.9C484 140.7 486.1 143 488.9 143Z" fill="#313033"/>
<path id="Vector_140" d="M516.9 252.1C520.1 252.1 522.8 249.5 522.8 246.3C522.8 243.1 520.2 240.4 517 240.4C513.7 240.3 511 243.1 511 246.3C511 249.4 513.7 252.1 516.9 252.1Z" fill="#313033"/>
<path id="Vector_141" d="M515.9 197C518.7 197 520.9 194.8 521 192C521 189.2 518.7 187 516 187C513.3 187 511.1 189.2 511 191.9C510.9 194.7 513.2 197 515.9 197Z" fill="#313033"/>
<path id="Vector_142" d="M489.4 87C490.7 87.1 492 85.9 492 84.5C492 83.2 490.9 82 489.6 82C488.3 81.9 487 83.1 487 84.5C487 85.8 488.1 86.9 489.4 87Z" fill="#313033"/>
<path id="Vector_143" d="M327.4 5.00001C328.7 5.10001 329.9 4.00001 330 2.70001C330.1 1.40001 329 0.100007 327.6 7.15163e-06C326.3 -0.0999928 325.1 1.00001 325 2.30001C324.9 3.60001 326 4.90001 327.4 5.00001Z" fill="#313033"/>
<path id="Vector_144" d="M300.4 34C303 34 305 32 305 29.5C305 27 303 25.1 300.6 25C298 25 296 27 296 29.5C296 32 298 34 300.4 34Z" fill="#313033"/>
<path id="Vector_145" d="M327.6 91.4C331.5 91.4 334.8 88.1 334.8 84.2C334.8 80.3 331.5 77 327.6 77C323.7 77 320.4 80.2 320.3 84.1C320.2 88 323.6 91.4 327.6 91.4Z" fill="#313033"/>
<path id="Vector_146" d="M300.7 63.2C304.1 63.2 306.9 60.4 306.9 57C306.9 53.7 304.1 50.9 300.8 51C297.5 51 294.7 53.8 294.7 57.1C294.6 60.4 297.4 63.2 300.7 63.2Z" fill="#313033"/>
<path id="Vector_147" d="M327.5 259C334.6 259 340.7 253 340.7 245.9C340.7 238.7 334.8 232.8 327.6 232.7C320.4 232.7 314.4 238.6 314.4 245.8C314.3 252.9 320.3 259 327.5 259Z" fill="#313033"/>
<path id="Vector_148" d="M300.7 91.5C304.8 91.5 308.1 88.3 308.1 84.2C308.1 80.1 304.9 76.8 300.8 76.8C296.7 76.8 293.4 80 293.4 84.1C293.4 88.3 296.6 91.5 300.7 91.5Z" fill="#313033"/>
<path id="Vector_149" d="M300.4 119.5C305.1 119.5 309.1 115.6 309.1 110.9C309.1 106.3 305.3 102.4 300.6 102.3H300.3H300C295.5 102.5 291.8 106.3 291.7 110.8C291.7 115.5 295.6 119.5 300.4 119.5Z" fill="#313033"/>
<path id="Vector_150" d="M327.6 119.2C332.2 119.2 335.9 115.4 335.8 110.7C335.8 106.1 332 102.4 327.3 102.5C322.7 102.5 319 106.3 319.1 111C319.2 115.6 323 119.3 327.6 119.2Z" fill="#313033"/>
<path id="Vector_151" d="M327.4 147.4C332.7 147.4 336.9 143.3 336.9 138C336.9 132.7 332.8 128.5 327.5 128.5C322.2 128.5 318 132.6 318 137.9C318 143.2 322.2 147.4 327.4 147.4Z" fill="#313033"/>
<path id="Vector_152" d="M327.6 175.5C333.4 175.5 338 170.9 338.1 165C338.1 159.1 333.4 154.4 327.5 154.5C321.7 154.5 317.1 159.1 317 165C317 170.9 321.7 175.5 327.6 175.5Z" fill="#313033"/>
<path id="Vector_153" d="M327.6 231.5C334.4 231.5 340 225.8 339.9 219.1C339.9 212.3 334.2 206.7 327.5 206.8C320.7 206.8 315.1 212.4 315.1 219.2C315.2 226 320.8 231.6 327.6 231.5Z" fill="#313033"/>
<path id="Vector_154" d="M327.6 203.5C333.9 203.5 339 198.3 339 192C339 185.7 333.8 180.6 327.5 180.6C321.2 180.6 316.1 185.7 316.1 192.1C316 198.5 321.2 203.6 327.6 203.5Z" fill="#313033"/>
<path id="Vector_155" d="M300 6C301.7 6 303 4.7 303 3C303 1.3 301.6 0 299.9 0C298.3 0 297 1.3 297 3C297 4.7 298.3 6 300 6Z" fill="#313033"/>
<path id="Vector_156" d="M273.6 119.5C278.3 119.6 282.3 115.7 282.3 110.9C282.3 106.2 278.4 102.2 273.7 102.2C269 102.2 265 106.1 265.1 110.8C265.1 115.6 268.9 119.4 273.6 119.5Z" fill="#313033"/>
<path id="Vector_157" d="M273.7 63.2C277 63.2 279.8 60.4 279.8 57.1C279.8 53.8 277 51 273.7 51C270.3 51 267.5 53.9 267.6 57.2C267.6 60.6 270.4 63.3 273.7 63.2Z" fill="#313033"/>
<path id="Vector_158" d="M273.6 91.5C277.7 91.5 281 88.3 281 84.2C281 80.1 277.8 76.8 273.7 76.8C269.6 76.8 266.3 80 266.3 84.1C266.3 88.2 269.5 91.5 273.6 91.5Z" fill="#313033"/>
<path id="Vector_159" d="M273.6 147.7C279 147.7 283.4 143.3 283.3 137.9C283.3 132.6 278.9 128.3 273.5 128.3C268.2 128.3 263.8 132.7 263.8 138C263.9 143.3 268.3 147.7 273.6 147.7Z" fill="#313033"/>
<path id="Vector_160" d="M273.7 175.8C279.7 175.8 284.5 171 284.5 165C284.5 159 279.7 154.2 273.6 154.3C267.7 154.3 262.9 159.1 262.9 165C262.9 171 267.7 175.8 273.7 175.8Z" fill="#313033"/>
<path id="Vector_161" d="M272.9 6C274.6 6 276 4.8 276 3C276 1.3 274.7 0 273 0C271.3 0 270.1 1.2 270 2.9C269.9 4.6 271.2 6 272.9 6Z" fill="#313033"/>
<path id="Vector_162" d="M273.4 34C275.9 34 277.9 32.1 278 29.7C278.1 27.1 276.1 25.1 273.6 25C271.1 25 269.1 26.9 269 29.3C268.9 31.9 270.9 34 273.4 34Z" fill="#313033"/>
<path id="Vector_163" d="M300.5 203.9C307 203.9 312.3 198.5 312.2 192C312.2 185.5 306.8 180.2 300.3 180.3C293.9 180.4 288.6 185.7 288.6 192.1C288.6 198.5 294 203.9 300.5 203.9Z" fill="#313033"/>
<path id="Vector_164" d="M300.3 175.8C306.3 175.8 311.1 171 311.1 165C311.1 159.1 306.3 154.3 300.4 154.3C294.4 154.3 289.6 159.1 289.6 165.1C289.7 170.9 294.5 175.7 300.3 175.8Z" fill="#313033"/>
<path id="Vector_165" d="M300.5 231.9C307.5 231.8 313.2 226.1 313.2 219.2C313.2 212.3 307.5 206.5 300.6 206.4C293.6 206.3 287.7 212.1 287.7 219.1C287.6 226.1 293.5 232 300.5 231.9Z" fill="#313033"/>
<path id="Vector_166" d="M300.4 147.7C305.8 147.7 310.1 143.4 310.1 138C310.1 132.6 305.8 128.3 300.4 128.3C295 128.3 290.6 132.6 290.6 137.9C290.6 143.3 295 147.7 300.4 147.7Z" fill="#313033"/>
<path id="Vector_167" d="M354.6 5C355.9 4.9 357 3.8 357 2.5C357 1.2 355.8 0 354.5 0C353.2 0 352 1.1 352 2.5C352 3.8 353.2 5.1 354.6 5Z" fill="#313033"/>
<path id="Vector_168" d="M381.7 230.2C387.7 230.2 392.8 225.2 392.7 219.1C392.7 213.1 387.6 208.1 381.6 208.1C375.5 208.2 370.5 213.2 370.7 219.2C370.8 225.3 375.7 230.2 381.7 230.2Z" fill="#313033"/>
<path id="Vector_169" d="M381.7 202.4C387.3 202.4 392 197.8 392.1 192.2C392.2 186.6 387.5 181.8 381.8 181.8C376.2 181.8 371.5 186.4 371.4 192C371.3 197.6 376 202.4 381.7 202.4Z" fill="#313033"/>
<path id="Vector_170" d="M381.7 174.5C387 174.5 391.2 170.4 391.2 165.1C391.2 159.8 387.1 155.6 381.8 155.6C376.5 155.6 372.3 159.7 372.3 165C372.2 170.3 376.4 174.5 381.7 174.5Z" fill="#313033"/>
<path id="Vector_171" d="M381 5C382.4 5 383.3 4.2 383 3C382.8 2.2 381.9 1.6 381.3 1C381 1 380.7 1 380.5 1C380 1.7 379.3 2.3 379.1 3.1C378.8 4.2 379.7 5 381 5Z" fill="#313033"/>
<path id="Vector_172" d="M381.8 257.3C388.1 257.3 393.2 252.2 393.2 245.8C393.2 239.5 388.1 234.4 381.8 234.3C375.4 234.3 370.3 239.4 370.3 245.7C370.2 252.2 375.3 257.3 381.8 257.3Z" fill="#313033"/>
<path id="Vector_173" d="M381.8 90.5C385.4 90.5 388.1 87.6 388.1 84.1C388.1 80.5 385.2 77.8 381.7 77.8C378.1 77.8 375.4 80.7 375.4 84.2C375.4 87.8 378.2 90.6 381.8 90.5Z" fill="#313033"/>
<path id="Vector_174" d="M381.7 146.6C386.4 146.6 390.3 142.6 390.3 137.9C390.3 133.2 386.3 129.3 381.6 129.4C376.9 129.5 373.1 133.3 373.1 138C373.1 142.6 377 146.6 381.7 146.6Z" fill="#313033"/>
<path id="Vector_175" d="M381.6 33C383.6 32.9 385 31.4 385 29.4C385 27.4 383.5 26 381.5 26C379.5 26 378 27.5 378 29.5C378 31.5 379.6 33.1 381.6 33Z" fill="#313033"/>
<path id="Vector_176" d="M381 62C383.8 62 386 59.7 386 56.9C386 54.1 383.7 51.9 380.9 52C378.2 52.1 376 54.3 376 57C376 59.7 378.3 62 381 62Z" fill="#313033"/>
<path id="Vector_177" d="M381.7 118.8C385.9 118.8 389.3 115.3 389.3 111.1C389.3 107 385.7 103.5 381.6 103.6C377.5 103.7 374.1 107.1 374.1 111.2C374.1 115.4 377.6 118.8 381.7 118.8Z" fill="#313033"/>
<path id="Vector_178" d="M353.9 34C356.1 34 357.9 32.2 358 30C358 27.9 356.3 26.1 354.1 26C352 25.9 350 27.7 350 29.9C349.9 32 351.8 34 353.9 34Z" fill="#313033"/>
<path id="Vector_179" d="M354.4 118.9C358.9 119 362.6 115.5 362.6 111.1C362.7 106.6 359.2 103 354.7 102.9C350.2 102.9 346.6 106.4 346.6 110.8C346.6 115.2 350 118.8 354.4 118.9Z" fill="#313033"/>
<path id="Vector_180" d="M354.4 203.1C360.3 203.3 365.4 198.5 365.6 192.4C365.9 186.5 361 181.3 354.9 181H354.6H354.3C348.6 181.1 343.7 185.9 343.5 191.8C343.4 197.8 348.3 202.9 354.4 203.1Z" fill="#313033"/>
<path id="Vector_181" d="M354.7 258.2C361.5 258.1 367.1 252.5 367 245.8C366.9 239 361.3 233.4 354.5 233.5C347.7 233.6 342.1 239.2 342.2 245.9C342.3 252.7 347.9 258.3 354.7 258.2Z" fill="#313033"/>
<path id="Vector_182" d="M354.6 230.9C361.1 230.9 366.4 225.6 366.4 219.1C366.4 212.6 361 207.3 354.5 207.4C348.1 207.4 342.8 212.7 342.8 219.1C342.8 225.6 348.1 230.9 354.6 230.9Z" fill="#313033"/>
<path id="Vector_183" d="M354.4 62.7C357.5 62.8 360.1 60.4 360.2 57.3C360.3 54.3 357.9 51.7 354.9 51.6H354.7H354.5C351.6 51.7 349.2 54 349.1 57C349 60 351.3 62.5 354.4 62.7Z" fill="#313033"/>
<path id="Vector_184" d="M327.4 34C329.8 34 331.9 32.1 332 29.7C332.1 27.2 330.1 25.1 327.6 25C325.2 25 323.1 26.9 323 29.3C322.9 31.8 324.9 33.9 327.4 34Z" fill="#313033"/>
<path id="Vector_185" d="M273.6 203.9C280.1 203.9 285.4 198.6 285.4 192.1C285.4 185.6 280.1 180.3 273.6 180.3C267.2 180.3 261.9 185.6 261.8 192C261.8 198.5 267.1 203.8 273.6 203.9Z" fill="#313033"/>
<path id="Vector_186" d="M354.5 175.1C360.2 175.2 364.7 170.7 364.7 165.1C364.7 159.5 360.3 155 354.7 155C349 154.9 344.5 159.4 344.5 165C344.5 170.5 349 175 354.5 175.1Z" fill="#313033"/>
<path id="Vector_187" d="M354.6 91.1C358.3 91.1 361.5 88 361.5 84.3C361.6 80.5 358.4 77.3 354.6 77.3C350.9 77.3 347.7 80.4 347.7 84.1C347.6 87.8 350.8 91.1 354.6 91.1Z" fill="#313033"/>
<path id="Vector_188" d="M327.6 63C330.8 62.9 333.4 60.3 333.4 57.1C333.4 53.9 330.7 51.3 327.5 51.3C324.3 51.3 321.6 54 321.6 57.2C321.6 60.3 324.4 63.1 327.6 63Z" fill="#313033"/>
<path id="Vector_189" d="M354.6 147C359.6 147 363.7 143.1 363.7 138.1C363.7 133 359.8 128.9 354.7 128.9C349.7 128.9 345.6 132.8 345.6 137.8C345.5 143 349.5 147 354.6 147Z" fill="#313033"/>
<path id="Vector_190" d="M381.7 510.6C378.8 510.6 376.4 513 376.5 515.9C376.5 518.7 378.9 521 381.7 521C384.6 521 387 518.6 386.9 515.7C386.9 512.9 384.6 510.6 381.7 510.6Z" fill="#313033"/>
<path id="Vector_191" d="M381.7 288.2C375.3 288.2 370 293.5 370 299.9C370 306.4 375.3 311.7 381.7 311.8C388.2 311.8 393.5 306.5 393.5 300C393.5 293.5 388.2 288.2 381.7 288.2Z" fill="#313033"/>
<path id="Vector_192" d="M381.8 261.2C375.3 261.2 370 266.5 370 273C370 279.4 375.2 284.7 381.7 284.8C388.2 284.9 393.6 279.6 393.6 273.1C393.6 266.5 388.2 261.2 381.8 261.2Z" fill="#313033"/>
<path id="Vector_193" d="M382 315.6H381.7H381.4C375.2 315.8 370.2 320.7 370.2 326.8C370.1 333.2 375.1 338.4 381.4 338.5C387.9 338.6 393.1 333.6 393.2 327.3C393.3 320.9 388.4 315.7 382 315.6Z" fill="#313033"/>
<path id="Vector_194" d="M381.9 482.3H381.7H381.5C378.2 482.4 375.4 485.3 375.3 488.7C375.2 492.2 378.2 495.2 381.7 495.3C385.2 495.4 388.2 492.4 388.3 488.8C388.2 485.3 385.4 482.4 381.9 482.3Z" fill="#313033"/>
<path id="Vector_195" d="M407.6 511C405 511 403 512.9 403 515.5C403 518 404.9 520 407.4 520C410 520 412 518.1 412 515.5C412 513 410.1 511 407.6 511Z" fill="#313033"/>
<path id="Vector_196" d="M381.6 370.5C375.9 370.5 371.2 375.3 371.3 381C371.3 386.7 376.1 391.3 381.8 391.3C387.5 391.3 392.2 386.5 392.1 380.8C392.1 375.1 387.3 370.4 381.6 370.5Z" fill="#313033"/>
<path id="Vector_197" d="M381.8 454.4C377.5 454.4 374.1 457.8 374.1 462.1C374.1 466.3 377.6 469.7 381.8 469.7C386 469.7 389.4 466.3 389.4 462.1C389.4 457.9 386 454.4 381.8 454.4Z" fill="#313033"/>
<path id="Vector_198" d="M381.8 426.3C377.1 426.3 373.2 430.2 373.1 434.9C373.1 439.6 376.9 443.6 381.6 443.6C386.4 443.7 390.4 439.7 390.4 434.9C390.4 430.2 386.5 426.3 381.8 426.3Z" fill="#313033"/>
<path id="Vector_199" d="M381.8 343.1C375.7 343.1 370.6 348.2 370.7 354.3C370.8 360.3 375.8 365.3 381.8 365.3C387.8 365.3 392.8 360.3 392.8 354.2C392.8 348.1 387.8 343.1 381.8 343.1Z" fill="#313033"/>
<path id="Vector_200" d="M408.5 482.9C405.3 482.9 402.6 485.6 402.6 488.7C402.6 491.8 405.2 494.4 408.3 494.5C411.4 494.6 414.2 491.9 414.2 488.7C414.3 485.6 411.7 482.9 408.5 482.9Z" fill="#313033"/>
<path id="Vector_201" d="M381.8 398.3C376.6 398.3 372.2 402.6 372.1 407.8C372.1 413 376.4 417.4 381.7 417.5C386.9 417.5 391.3 413.2 391.4 408C391.4 402.7 387 398.3 381.8 398.3Z" fill="#313033"/>
<path id="Vector_202" d="M408.1 540C406.5 540 405.1 541.3 405 542.9C404.9 544.5 406.4 546 408 546C409.6 546 411 544.6 411 543C411 541.4 409.7 540 408.1 540Z" fill="#313033"/>
<path id="Vector_203" d="M408.8 262.2C402.9 262.2 398.1 267 398.1 272.9C398.1 278.9 403 283.7 408.9 283.7C414.8 283.7 419.6 278.9 419.6 273C419.6 267 414.7 262.2 408.8 262.2Z" fill="#313033"/>
<path id="Vector_204" d="M408.4 289.2C402.5 289.2 397.7 294 397.7 299.9C397.7 305.9 402.5 310.7 408.5 310.7C414.5 310.7 419.3 305.9 419.3 299.9C419.2 294 414.4 289.2 408.4 289.2Z" fill="#313033"/>
<path id="Vector_205" d="M435.1 541C433.9 541 433.1 541.6 433 542.9C432.9 544.1 433.8 545.1 435 545C436.2 545 436.9 544.3 437 543.3C437 541.9 436.2 541 435.1 541Z" fill="#313033"/>
<path id="Vector_206" d="M435.2 484C432.4 483.9 430.1 486.1 430 488.9C429.9 491.7 432.1 494 434.9 494C437.7 494 440 491.8 440 489C440 486.3 437.9 484.1 435.2 484Z" fill="#313033"/>
<path id="Vector_207" d="M435.6 512C433.7 512 432 513.6 432 515.5C432 517.3 433.6 518.9 435.4 519C437.3 519 439 517.4 439 515.5C439 513.6 437.4 512 435.6 512Z" fill="#313033"/>
<path id="Vector_208" d="M408.5 344C402.8 344 398.4 348.4 398.4 354.1C398.4 359.7 402.8 364.2 408.5 364.2C414.2 364.2 418.6 359.8 418.6 354.1C418.6 348.5 414.1 344 408.5 344Z" fill="#313033"/>
<path id="Vector_209" d="M408.5 399.1C403.6 399.1 399.7 402.9 399.7 407.8C399.7 412.7 403.5 416.5 408.3 416.6C413.2 416.7 417.2 412.9 417.2 407.9C417.3 403.1 413.4 399.2 408.5 399.1Z" fill="#313033"/>
<path id="Vector_210" d="M408.5 427C404.1 427 400.5 430.5 400.5 434.9C400.4 439.3 404 443 408.5 443C412.9 443 416.5 439.5 416.5 435.1C416.5 430.6 412.9 427 408.5 427Z" fill="#313033"/>
<path id="Vector_211" d="M408.7 371.3H408.4H408.1C403.1 371.4 399.1 375.4 398.9 380.5C398.7 385.8 402.8 390.2 408.2 390.3C413.4 390.5 417.8 386.4 418 381.1C418.2 375.9 414 371.5 408.7 371.3Z" fill="#313033"/>
<path id="Vector_212" d="M408.5 316.5C402.6 316.5 397.9 321.1 397.9 327C397.9 332.9 402.5 337.6 408.4 337.6C414.3 337.6 419 333 419 327.1C419.1 321.3 414.4 316.5 408.5 316.5Z" fill="#313033"/>
<path id="Vector_213" d="M415.355 462.016C415.368 458.206 412.289 455.106 408.478 455.093C404.667 455.081 401.568 458.16 401.555 461.97C401.543 465.781 404.622 468.881 408.432 468.893C412.243 468.906 415.343 465.827 415.355 462.016Z" fill="#313033"/>
<path id="Vector_214" d="M327.5 509.8C324.2 509.8 321.6 512.4 321.5 515.7C321.5 519.1 324 521.8 327.4 521.8C330.8 521.8 333.5 519.2 333.5 515.8C333.5 512.4 330.9 509.8 327.5 509.8Z" fill="#313033"/>
<path id="Vector_215" d="M327.5 341.7C320.7 341.7 315.1 347.3 315.1 354.1C315.1 360.9 320.8 366.6 327.6 366.6C334.4 366.6 340 361 340 354.2C340 347.4 334.3 341.7 327.5 341.7Z" fill="#313033"/>
<path id="Vector_216" d="M327.6 313.9C320.2 314 314.3 319.3 314.3 327.1C314.3 335.5 320.9 340.2 327.5 340.2C334.7 340.3 340.7 334.3 340.7 327.1C340.7 319.9 334.8 313.8 327.6 313.9Z" fill="#313033"/>
<path id="Vector_217" d="M354.6 567C353.1 566.9 352 568 352 569.4C351.9 570.9 353 572 354.4 572C355.8 572 356.9 571 356.9 569.7C357.1 568.2 356.1 567.1 354.6 567Z" fill="#313033"/>
<path id="Vector_218" d="M327.5 369.3C321.1 369.3 316 374.3 315.9 380.7C315.8 387.2 320.9 392.3 327.3 392.4C333.8 392.5 338.9 387.4 339 380.9C339.1 374.5 334 369.3 327.5 369.3Z" fill="#313033"/>
<path id="Vector_219" d="M341.1 272.1C340.9 266.5 336.8 261.4 331.2 259.8C324.7 258 319.7 260.4 314.5 268.2C312.8 263.7 309.7 260.6 305.1 258.8C312.4 254.4 315.1 249.3 313.7 242.9C312.4 237.2 307.7 232.9 302 232.3C295.2 231.6 290.4 234.9 287 242.6C284.3 235.4 279.6 232 272.9 232.3C267.2 232.5 262.1 236.5 260.5 242C258.6 248.5 261 253.5 268.4 258.6C266.7 259.8 264.7 260.9 263.2 262.4C261.7 263.9 260.6 265.9 259.3 267.7C254.5 260.6 249.7 258.1 243.3 259.7C237.8 261.1 233.6 265.6 232.9 271C232.5 274.5 233.1 277.8 235.2 280.7C237.2 283.6 240 285.4 243.5 286.4C235.6 290.1 232.2 294.6 232.8 300.8C233 302.9 233.7 305.2 234.7 307C235.7 308.8 237.4 310.4 239.1 311.5C240.8 312.7 243 313.2 244.7 313.9C236.6 316.4 232.7 321.1 233.2 328.1C233.6 334.2 238.2 339.2 244.5 340.2C248.2 340.8 251.5 339.8 254.5 337.6C257.5 335.3 259 332.1 259.7 328.2C261 335.6 265.1 339.7 272.3 341C263.8 343.7 259.8 348.7 260.7 355.3C261.5 361.7 266.5 366.4 272.8 366.7C278.9 367.1 284.5 362.9 285.9 357C286.6 354 286.3 351.1 285 348.4C282.9 344.1 279.3 341.9 274.7 341C280.9 340 284.8 336.6 286.8 330.8C290.7 338.6 295 341.4 301.8 340.8C307.1 340.3 312 336.4 313.3 331.1C315.3 323.4 312.1 317.9 305.1 314.2C309.7 312.5 312.6 309.4 314.4 305C318.6 311.9 323.6 314.7 329.8 313.6C335.5 312.5 340.2 308 340.8 302.3C341.7 294.2 337.7 289.1 330 286.6C337.9 283.6 341.4 279 341.1 272.1ZM259.5 277.7C261.1 281.6 263.5 284.4 267.3 286.4C263.5 288.4 261 291.1 259.5 295.1C257.4 290.7 254.3 287.8 249.6 286.5C254.2 285.1 257.5 282.3 259.5 277.7ZM259.9 325.8C258.6 319.1 254.6 315.1 247.4 313.8C253.3 313 257.1 310.2 259.5 305C261.4 309.4 264.2 312.4 268.8 314.2C263.7 316.6 260.6 320.3 259.9 325.8ZM287.2 323.4L287.1 323.8L287 323.4C285.5 319 282.9 316.1 278.6 314.2C282.5 312.6 285.2 310.3 287.1 306.7C289.1 310.3 291.8 312.7 295.7 314.1C291.5 316 288.7 318.9 287.2 323.4ZM280.8 286.4C282.8 284.4 285.1 282.2 287.1 280.2C289.1 282.1 291.3 284.4 293.4 286.4C291.4 288.3 289.1 290.6 287.1 292.5C285.1 290.6 282.9 288.4 280.8 286.4ZM287.1 266.3C284.3 262 283 260.9 278.4 258.7C282.8 256.8 285.7 253.7 287 248.7C288.4 253.6 291.3 256.8 295.9 258.7C291.9 260.3 289 262.8 287.1 266.3ZM314.6 295.4C313 291.3 310.5 288.4 306.6 286.5C310.4 284.5 313 281.7 314.5 277.5C316.5 282.3 319.9 285.2 325.3 286.5C320.1 287.7 316.7 290.5 314.6 295.4Z" fill="#313033"/>
<path id="Vector_220" d="M327.4 481.4C323.4 481.4 320.2 484.7 320.2 488.7C320.2 492.8 323.5 496 327.6 496C331.6 496 334.8 492.7 334.8 488.7C334.8 484.6 331.6 481.4 327.4 481.4Z" fill="#313033"/>
<path id="Vector_221" d="M435.6 455.9C432.3 455.9 429.5 458.6 429.4 461.9C429.3 465.3 432.2 468.1 435.6 468.1C438.9 468.1 441.7 465.3 441.7 462C441.7 458.7 439 455.9 435.6 455.9Z" fill="#313033"/>
<path id="Vector_222" d="M354 539C351.9 539 350.1 540.7 350 542.9C349.9 545.1 351.7 547 353.9 547C356.1 547.1 358 545.3 358 543.1C358 540.9 356.2 539 354 539Z" fill="#313033"/>
<path id="Vector_223" d="M327.6 538C325.1 538 323.1 539.9 323 542.4C322.9 545 324.9 547 327.4 547C329.9 547 331.9 545.1 332 542.7C332.1 540.1 330.1 538 327.6 538Z" fill="#313033"/>
<path id="Vector_224" d="M327.5 397.3C321.6 397.3 316.7 402.2 316.9 408.1C317 413.9 321.8 418.7 327.6 418.6C333.4 418.5 338.2 413.7 338.2 407.9C338.1 402 333.3 397.3 327.5 397.3Z" fill="#313033"/>
<path id="Vector_225" d="M327.7 453.6H327.4H327.1C322.6 453.8 319 457.3 319 461.9C318.9 466.6 322.5 470.3 327.2 470.5C332 470.6 335.8 467 335.9 462.3C336.1 457.5 332.5 453.7 327.7 453.6Z" fill="#313033"/>
<path id="Vector_226" d="M354.7 510.2C351.5 510.2 349 512.5 349 515.6C348.9 518.8 351.4 521.4 354.6 521.4C357.7 521.4 360.2 519 360.2 515.9C360.3 512.7 357.9 510.2 354.7 510.2Z" fill="#313033"/>
<path id="Vector_227" d="M381.5 539C379.6 539 378.1 540.6 378 542.4C377.9 544.3 379.6 546 381.5 546C383.4 546 384.9 544.4 385 542.6C385.1 540.7 383.4 539 381.5 539Z" fill="#313033"/>
<path id="Vector_228" d="M354.6 287.2C347.6 287.2 341.8 293 341.8 300C341.9 307 347.6 312.7 354.5 312.7C361.5 312.7 367.3 306.9 367.3 299.9C367.3 293 361.6 287.3 354.6 287.2Z" fill="#313033"/>
<path id="Vector_229" d="M354.8 314.6H354.5H354.2C347.7 314.8 342.3 320.3 342.2 326.9C342.2 333.6 347.7 339.3 354.5 339.4C361.3 339.5 367 333.9 367.1 327C367.1 320.4 361.6 314.7 354.8 314.6Z" fill="#313033"/>
<path id="Vector_230" d="M379 570C379 571.3 379.7 572.2 380.8 572C381.6 571.9 382.3 571 383 570.5C383 570.2 383 569.9 383 569.6C382.3 569.1 381.6 568.2 380.9 568C379.8 567.8 379 568.7 379 570Z" fill="#313033"/>
<path id="Vector_231" d="M354.7 260.2C347.7 260.2 341.9 266 341.9 273C341.9 279.9 347.6 285.7 354.6 285.7C361.6 285.7 367.4 279.9 367.4 272.9C367.4 265.9 361.6 260.2 354.7 260.2Z" fill="#313033"/>
<path id="Vector_232" d="M354.6 342.3C348.1 342.3 342.8 347.6 342.8 354.1C342.8 360.6 348.1 365.9 354.6 365.9C361.1 365.9 366.4 360.6 366.4 354.1C366.4 347.6 361.1 342.3 354.6 342.3Z" fill="#313033"/>
<path id="Vector_233" d="M354.6 453.9C350.1 453.9 346.5 457.4 346.5 461.9C346.4 466.4 350 470.1 354.6 470.1C359.1 470.1 362.8 466.5 362.8 462C362.8 457.5 359.1 453.9 354.6 453.9Z" fill="#313033"/>
<path id="Vector_234" d="M354.6 369.8C348.6 369.8 343.5 374.8 343.5 380.8C343.5 386.8 348.4 391.9 354.5 391.9C360.6 392 365.7 386.9 365.7 380.8C365.7 374.8 360.7 369.8 354.6 369.8Z" fill="#313033"/>
<path id="Vector_235" d="M354.623 495.602C358.434 495.59 361.514 492.492 361.502 488.681C361.49 484.87 358.391 481.79 354.58 481.802C350.769 481.814 347.69 484.913 347.702 488.724C347.714 492.535 350.813 495.614 354.623 495.602Z" fill="#313033"/>
<path id="Vector_236" d="M354.6 425.8C349.5 425.8 345.4 430 345.5 435.1C345.6 440.2 349.7 444.2 354.8 444.1C359.9 444.1 363.9 440 363.9 434.9C363.8 429.9 359.7 425.7 354.6 425.8Z" fill="#313033"/>
<path id="Vector_237" d="M354.9 397.8H354.6H354.3C348.8 397.9 344.5 402.2 344.4 407.7C344.3 413.4 348.7 417.9 354.3 418C360 418.1 364.6 413.8 364.7 408.1C364.9 402.5 360.6 397.9 354.9 397.8Z" fill="#313033"/>
<path id="Vector_238" d="M327.5 425.4C322.2 425.4 317.9 429.7 317.9 435C317.9 440.2 322.3 444.6 327.5 444.6C332.8 444.6 337.1 440.3 337.1 435C337.1 429.7 332.8 425.4 327.5 425.4Z" fill="#313033"/>
<path id="Vector_239" d="M516.9 321.1C513.6 321.1 510.9 323.7 510.9 327C510.9 330.3 513.5 332.9 516.8 333C520.1 333 522.8 330.4 522.8 327.1C522.8 323.8 520.2 321.1 516.9 321.1Z" fill="#313033"/>
<path id="Vector_240" d="M517 348.5C513.8 348.4 511.2 350.9 511.2 354.1C511.2 357.2 513.6 359.7 516.7 359.7C519.8 359.7 522.3 357.3 522.4 354.2C522.5 351.1 520.1 348.6 517 348.5Z" fill="#313033"/>
<path id="Vector_241" d="M516.9 266.8C513.6 266.8 510.8 269.6 510.8 272.9C510.8 276.3 513.7 279.1 517 279C520.3 278.9 523.1 276.1 523 272.8C523 269.5 520.2 266.8 516.9 266.8Z" fill="#313033"/>
<path id="Vector_242" d="M543.1 433C541.9 432.9 541 433.9 541 435C541.1 436.2 541.8 436.8 543 437C544.2 436.9 545 436.3 545 435C545 433.8 544.3 433.1 543.1 433Z" fill="#313033"/>
<path id="Vector_243" d="M516.9 375.7C514.1 375.7 511.7 378.1 511.7 380.9C511.7 383.7 514.1 386 516.8 386C519.6 386 522 383.6 522 380.8C522 378 519.6 375.7 516.9 375.7Z" fill="#313033"/>
<path id="Vector_244" d="M517 293.9H516.8H516.6C513.5 294.1 510.9 296.6 510.8 299.8C510.7 303.1 513.5 306.1 516.9 306.1C520.2 306.1 523 303.4 523.1 300.1C523.1 296.8 520.3 294 517 293.9Z" fill="#313033"/>
<path id="Vector_245" d="M489.8 265.6C485.7 265.6 482.4 268.8 482.4 272.9C482.4 277 485.6 280.3 489.7 280.3C493.8 280.3 497.1 277.1 497.1 273C497.2 268.9 494 265.6 489.8 265.6Z" fill="#313033"/>
<path id="Vector_246" d="M489.8 292.6C485.7 292.6 482.4 295.8 482.4 299.9C482.4 304 485.6 307.3 489.7 307.3C493.8 307.3 497.1 304.1 497.1 300C497.2 295.9 494 292.7 489.8 292.6Z" fill="#313033"/>
<path id="Vector_247" d="M516.6 403C514.1 402.9 512 405 512 407.5C512 409.9 514 411.9 516.4 412C518.9 412.1 521 410 521 407.5C521 405.1 519 403.1 516.6 403Z" fill="#313033"/>
<path id="Vector_248" d="M516.6 431C514.5 431 513 432.5 513 434.5C513 436.5 514.5 438 516.5 438C518.5 438 520 436.5 520 434.6C520 432.6 518.6 431 516.6 431Z" fill="#313033"/>
<path id="Vector_249" d="M489.7 319.8C485.7 319.8 482.4 323.1 482.5 327.1C482.5 331.1 485.8 334.3 489.8 334.3C493.8 334.3 497.1 331 497 327C497 323 493.7 319.8 489.7 319.8Z" fill="#313033"/>
<path id="Vector_250" d="M515.4 460C514 460 513 461 513 462.4C513 463.9 514 465 515.5 465C517 465 518 463.9 518 462.5C518 461 516.9 460 515.4 460Z" fill="#313033"/>
<path id="Vector_251" d="M573 327.6C573.1 326.3 571.9 325 570.5 325C569.2 325 568 326.1 568 327.4C567.9 328.7 569.1 330 570.5 330C571.7 330 572.9 328.9 573 327.6Z" fill="#313033"/>
<path id="Vector_252" d="M570.5 352C569.2 352 568 353.2 568 354.5C568 355.9 569.3 357.1 570.6 357C571.9 356.9 573 355.7 573 354.4C573 353.1 571.8 352 570.5 352Z" fill="#313033"/>
<path id="Vector_253" d="M569.9 270C568.2 270 567 271.3 567 272.9C567 274.6 568.2 276 570 276C571.7 276 573 274.7 573 273C573 271.3 571.7 270 569.9 270Z" fill="#313033"/>
<path id="Vector_254" d="M569.9 297C568.3 297.1 567 298.3 567 300C567 301.7 568.3 303 570 303C571.7 303 573 301.6 573 299.9C573 298.2 571.6 296.9 569.9 297Z" fill="#313033"/>
<path id="Vector_255" d="M570.5 379C570.2 379 569.9 379 569.6 379C569.1 379.7 568.2 380.4 568 381.1C567.8 382.2 568.7 382.9 569.9 383C571.2 383 572.1 382.3 571.9 381.2C571.8 380.4 571 379.7 570.5 379Z" fill="#313033"/>
<path id="Vector_256" d="M543 358C545.2 358 547 356.2 547 354C547 351.8 545.1 350 542.9 350C540.8 350 539 351.8 539 353.9C539 356.1 540.8 358 543 358Z" fill="#313033"/>
<path id="Vector_257" d="M543.4 268C540.9 268 539 270 539 272.5C539 275.1 541 277 543.6 277C546.1 277 548 275 548 272.5C548 269.9 546 268 543.4 268Z" fill="#313033"/>
<path id="Vector_258" d="M543.2 405C541.5 404.9 540.1 406.1 540 407.8C539.9 409.5 541.2 410.9 542.9 410.9C544.6 411 546 409.7 546 408C546 406.4 544.8 405.1 543.2 405Z" fill="#313033"/>
<path id="Vector_259" d="M543.5 377C541.5 377 540 378.5 540 380.4C540 382.5 541.5 384 543.6 384C545.6 384 547 382.5 547 380.5C547 378.5 545.5 377 543.5 377Z" fill="#313033"/>
<path id="Vector_260" d="M543.5 295C541 295 539 296.9 539 299.4C539 302 541 304 543.6 304C546.1 304 548 302 548 299.5C548 297 546 295 543.5 295Z" fill="#313033"/>
<path id="Vector_261" d="M543.5 323C541.1 323 539.1 325.1 539 327.5C539 330 541.1 332.1 543.5 332C545.9 332 547.9 329.9 548 327.5C548 325.1 545.9 323 543.5 323Z" fill="#313033"/>
<path id="Vector_262" d="M462.7 264.3C458.1 264.3 454.2 268.1 454.1 272.7C454 277.4 457.9 281.4 462.6 281.5C467.3 281.6 471.3 277.7 471.3 273C471.3 268.3 467.4 264.3 462.7 264.3Z" fill="#313033"/>
<path id="Vector_263" d="M462 485C459.8 485 458 486.7 458 488.9C457.9 491.2 459.7 493 462 493C464.2 493 466 491.3 466 489.1C466 486.8 464.3 485 462 485Z" fill="#313033"/>
<path id="Vector_264" d="M462.5 513C461.1 513 460.1 514 460 515.4C459.9 516.9 461 518 462.4 518C463.9 518 465 517 465 515.5C465 514.1 464 513 462.5 513Z" fill="#313033"/>
<path id="Vector_265" d="M462.7 428.8C459.4 428.8 456.6 431.6 456.6 434.9C456.6 438.2 459.3 441 462.7 441C466.1 441.1 468.9 438.2 468.9 434.8C468.8 431.6 466 428.8 462.7 428.8Z" fill="#313033"/>
<path id="Vector_266" d="M462.6 456.9C459.8 457 457.5 459.3 457.5 462.1C457.5 464.9 459.9 467.3 462.7 467.3C465.5 467.2 467.8 464.9 467.8 462.2C467.8 459.2 465.4 456.8 462.6 456.9Z" fill="#313033"/>
<path id="Vector_267" d="M462.6 401C458.8 401 455.7 404.2 455.7 408C455.7 411.8 458.9 414.9 462.7 414.9C466.5 414.9 469.6 411.7 469.6 407.9C469.6 404 466.4 400.9 462.6 401Z" fill="#313033"/>
<path id="Vector_268" d="M435.7 263.2C430.2 263.1 425.8 267.5 425.8 272.9C425.8 278.3 430.1 282.6 435.5 282.6C440.9 282.6 445.3 278.3 445.3 273C445.3 267.7 441.1 263.3 435.7 263.2Z" fill="#313033"/>
<path id="Vector_269" d="M435.5 400C431.2 400 427.6 403.7 427.6 408C427.6 412.3 431.3 415.9 435.6 415.9C439.9 415.9 443.5 412.2 443.5 407.9C443.5 403.5 439.8 399.9 435.5 400Z" fill="#313033"/>
<path id="Vector_270" d="M435.7 372.2H435.4H435.1C430.6 372.4 426.9 376.1 426.8 380.6C426.7 385.3 430.5 389.3 435.2 389.4C440 389.5 444 385.6 444.1 380.9C444.3 376.2 440.4 372.3 435.7 372.2Z" fill="#313033"/>
<path id="Vector_271" d="M435.7 345C430.6 344.9 426.5 348.9 426.4 354C426.3 359.1 430.3 363.2 435.4 363.3C440.5 363.4 444.6 359.4 444.7 354.4C444.8 349.2 440.8 345.1 435.7 345Z" fill="#313033"/>
<path id="Vector_272" d="M435.6 317.5C430.3 317.5 426 321.8 426 327.1C426 332.4 430.4 336.7 435.7 336.6C441 336.5 445.1 332.3 445.1 327C445.1 321.8 440.9 317.6 435.6 317.5Z" fill="#313033"/>
<path id="Vector_273" d="M435.6 290.3C430.2 290.3 425.9 294.6 425.9 300C425.9 305.4 430.2 309.7 435.5 309.8C440.9 309.8 445.3 305.5 445.3 300.1C445.3 294.6 440.9 290.3 435.6 290.3Z" fill="#313033"/>
<path id="Vector_274" d="M462.8 318.7C458.1 318.7 454.4 322.3 454.3 326.9C454.2 331.7 457.9 335.4 462.7 335.4C467.4 335.4 471.1 331.8 471.1 327.1C471.1 322.4 467.5 318.7 462.8 318.7Z" fill="#313033"/>
<path id="Vector_275" d="M489.1 458C486.9 457.9 485.1 459.6 485 461.8C484.9 464.1 486.6 466 488.8 466C491 466.1 492.8 464.4 492.9 462.2C493.1 459.9 491.4 458.1 489.1 458Z" fill="#313033"/>
<path id="Vector_276" d="M489.5 487C488.2 487 487 488.1 487 489.4C486.9 490.7 488.1 492 489.5 492C490.8 492 492 490.9 492 489.6C492.1 488.3 490.9 487 489.5 487Z" fill="#313033"/>
<path id="Vector_277" d="M489 430C486.2 430 484 432.2 484 435C484 437.8 486.2 440 489 440C491.8 440 494 437.8 494 435C494 432.1 491.8 430 489 430Z" fill="#313033"/>
<path id="Vector_278" d="M489.7 374.4C486.2 374.5 483.3 377.3 483.3 380.8C483.3 384.3 486.2 387.3 489.8 387.3C493.3 387.3 496.3 384.3 496.3 380.8C496.2 377.2 493.2 374.3 489.7 374.4Z" fill="#313033"/>
<path id="Vector_279" d="M489.8 402.1C486.7 402.1 484.1 404.7 484 407.8C483.9 410.9 486.6 413.7 489.7 413.8C492.9 413.9 495.6 411.2 495.6 408C495.6 404.8 493 402.1 489.8 402.1Z" fill="#313033"/>
<path id="Vector_280" d="M462.8 373.2C458.7 373.1 455.1 376.6 455.1 380.7C455.1 384.8 458.4 388.2 462.5 388.3C466.6 388.4 470.2 385 470.3 380.8C470.4 376.8 466.9 373.3 462.8 373.2Z" fill="#313033"/>
<path id="Vector_281" d="M496.663 354.113C496.677 350.302 493.598 347.202 489.788 347.189C485.977 347.175 482.877 350.254 482.863 354.064C482.85 357.875 485.928 360.975 489.739 360.989C493.55 361.002 496.65 357.924 496.663 354.113Z" fill="#313033"/>
<path id="Vector_282" d="M462.6 346.1C458.1 346.1 454.6 349.7 454.6 354.2C454.6 358.7 458.1 362.2 462.6 362.3C467.2 362.3 470.7 358.7 470.7 354.2C470.7 349.5 467.1 346 462.6 346.1Z" fill="#313033"/>
<path id="Vector_283" d="M462.6 291.4C458 291.4 454.1 295.3 454 299.9C453.9 304.6 457.8 308.6 462.6 308.6C467.3 308.6 471.3 304.7 471.3 300C471.3 295.3 467.3 291.4 462.6 291.4Z" fill="#313033"/>
<path id="Vector_284" d="M435.9 427.8C432 427.6 428.6 430.7 428.4 434.7C428.2 438.6 431.3 441.9 435.3 442.1C439.2 442.3 442.5 439.1 442.7 435.2C442.9 431.3 439.8 428.1 435.9 427.8Z" fill="#313033"/>
<path id="Vector_285" d="M192.4 342.7C186.3 342.7 181.3 347.6 181.3 353.7C181.2 359.8 186.2 364.9 192.4 364.9C198.5 364.9 203.5 360 203.5 353.9C203.5 347.7 198.5 342.7 192.4 342.7Z" fill="#313033"/>
<path id="Vector_286" d="M138.5 317.5C133.2 317.5 128.9 321.9 128.9 327.1C128.9 332.4 133.3 336.7 138.6 336.7C143.9 336.7 148.2 332.3 148.2 327.1C148.1 321.7 143.7 317.4 138.5 317.5Z" fill="#313033"/>
<path id="Vector_287" d="M138.6 344.5C133.5 344.4 129.3 348.6 129.2 353.7C129.2 358.8 133.4 363 138.5 363C143.6 363 147.8 358.7 147.8 353.7C147.7 348.7 143.6 344.6 138.6 344.5Z" fill="#313033"/>
<path id="Vector_288" d="M138.5 372.2C133.7 372.2 129.8 376.1 129.8 380.9C129.8 385.7 133.7 389.6 138.6 389.5C143.4 389.5 147.3 385.5 147.2 380.7C147.1 376 143.3 372.2 138.5 372.2Z" fill="#313033"/>
<path id="Vector_289" d="M138.5 290.2C133.1 290.2 128.8 294.5 128.7 299.9C128.7 305.4 133 309.7 138.5 309.7C143.9 309.7 148.2 305.4 148.3 300C148.3 294.6 144 290.2 138.5 290.2Z" fill="#313033"/>
<path id="Vector_290" d="M165 540C163.4 540 162 541.4 162 543C162 544.6 163.5 546.1 165.1 546C166.7 545.9 168 544.5 168 543C168 541.4 166.6 540 165 540Z" fill="#313033"/>
<path id="Vector_291" d="M138.6 399.9C134.2 399.9 130.5 403.5 130.6 407.9C130.6 412.3 134.2 415.8 138.5 415.8C142.9 415.8 146.5 412.2 146.5 407.8C146.5 403.5 142.9 399.9 138.6 399.9Z" fill="#313033"/>
<path id="Vector_292" d="M327 567C325.3 567 324.1 568.3 324 569.9C324 571.6 325.2 573 327 573C328.7 573 330 571.7 330 570C330 568.3 328.7 567 327 567Z" fill="#313033"/>
<path id="Vector_293" d="M138.5 512C136.6 512 135.1 513.6 135 515.4C135 517.3 136.6 519 138.5 519C140.4 519 141.9 517.4 142 515.6C142 513.7 140.4 512 138.5 512Z" fill="#313033"/>
<path id="Vector_294" d="M138.5 427.8C134.6 427.8 131.3 431.1 131.3 435C131.3 438.9 134.6 442.2 138.5 442.1C142.4 442 145.7 438.7 145.6 434.8C145.6 430.9 142.4 427.8 138.5 427.8Z" fill="#313033"/>
<path id="Vector_295" d="M138 541C136.8 541.1 136 541.8 136 543C136 544.2 136.7 544.9 137.9 545C139.1 545.1 140 544.1 140 543C139.9 541.7 139.2 541.1 138 541Z" fill="#313033"/>
<path id="Vector_296" d="M138.5 455.8C135.1 455.8 132.3 458.7 132.3 462C132.3 465.4 135.2 468.2 138.6 468.1C142 468.1 144.8 465.2 144.8 461.9C144.7 458.6 141.8 455.8 138.5 455.8Z" fill="#313033"/>
<path id="Vector_297" d="M164.6 511C162 510.9 160 512.9 160 515.5C160 518 161.9 520 164.4 520C167 520.1 169 518.1 169 515.5C169 513 167.1 511.1 164.6 511Z" fill="#313033"/>
<path id="Vector_298" d="M165.4 316.4C159.6 316.3 154.8 321 154.7 326.9C154.6 332.7 159.4 337.7 165.3 337.7C171.1 337.7 175.9 333 176 327.1C176 321.3 171.2 316.5 165.4 316.4Z" fill="#313033"/>
<path id="Vector_299" d="M165.4 262.1C159.4 262 154.5 266.7 154.4 272.7C154.3 278.8 159.1 283.7 165.2 283.7C171.2 283.7 176 279 176.1 273C176.1 267 171.4 262.2 165.4 262.1Z" fill="#313033"/>
<path id="Vector_300" d="M165.3 289.2C159.3 289.2 154.5 293.9 154.4 299.9C154.4 305.9 159.1 310.8 165.1 310.8C171.2 310.9 176.1 306.1 176.1 300C176.1 294 171.3 289.2 165.3 289.2Z" fill="#313033"/>
<path id="Vector_301" d="M192 568C190.7 568 189.8 568.8 190.1 569.9C190.3 570.7 191.1 571.3 191.7 572C192 572 192.3 572 192.6 572C193.1 571.3 193.9 570.6 194.1 569.8C194.2 568.7 193.2 568 192 568Z" fill="#313033"/>
<path id="Vector_302" d="M165.3 482.9C162.1 482.9 159.4 485.5 159.4 488.7C159.3 492 162.1 494.7 165.3 494.7C168.5 494.7 171.2 492 171.2 488.8C171.2 485.6 168.5 482.9 165.3 482.9Z" fill="#313033"/>
<path id="Vector_303" d="M191.5 539C189.6 539 188.1 540.6 188 542.5C188 544.4 189.6 546.1 191.5 546C193.4 546 194.9 544.4 195 542.5C195 540.6 193.4 539 191.5 539Z" fill="#313033"/>
<path id="Vector_304" d="M165.2 427C160.8 427 157.3 430.6 157.3 434.9C157.3 439.3 160.9 442.9 165.3 442.9C169.7 442.9 173.2 439.3 173.2 435C173.3 430.6 169.7 427 165.2 427Z" fill="#313033"/>
<path id="Vector_305" d="M192.4 510.6C189.5 510.6 187.1 513 187.2 515.9C187.2 518.7 189.6 521 192.4 521C195.3 521 197.7 518.6 197.6 515.7C197.5 512.9 195.2 510.6 192.4 510.6Z" fill="#313033"/>
<path id="Vector_306" d="M165.3 455C161.4 455 158.3 458.1 158.3 462.1C158.3 466 161.4 469 165.3 469C169.2 469 172.3 465.9 172.3 461.9C172.2 458.1 169.1 455.1 165.3 455Z" fill="#313033"/>
<path id="Vector_307" d="M165.3 399.1C160.4 399 156.5 402.9 156.4 407.8C156.3 412.7 160.3 416.8 165.2 416.7C170.1 416.7 174 412.8 174 407.9C174.1 403.1 170.2 399.1 165.3 399.1Z" fill="#313033"/>
<path id="Vector_308" d="M165.4 371.2C160.2 371.1 155.8 375.4 155.7 380.7C155.6 385.9 159.9 390.3 165.2 390.4C170.4 390.5 174.8 386.2 174.9 380.9C174.9 375.7 170.6 371.3 165.4 371.2Z" fill="#313033"/>
<path id="Vector_309" d="M165.4 343.6C159.7 343.5 155.1 348 155.1 353.8C155.1 359.5 159.6 363.9 165.2 363.9C170.9 363.9 175.4 359.5 175.4 353.8C175.5 348.2 171 343.7 165.4 343.6Z" fill="#313033"/>
<path id="Vector_310" d="M84.1999 458C81.9999 457.9 80.0999 459.7 79.9999 461.9C79.8999 464.1 81.6999 466 83.8999 466C85.9999 466.1 87.7999 464.4 87.9999 462.2C88.0999 460.1 86.3999 458.1 84.1999 458Z" fill="#313033"/>
<path id="Vector_311" d="M84.2 486C82.5 485.9 81.1 487.2 81 488.9C80.9 490.6 82.2 492 83.9 492C85.6 492 87 490.7 87 489C87 487.4 85.8 486.1 84.2 486Z" fill="#313033"/>
<path id="Vector_312" d="M111.4 291.3C106.7 291.3 102.8 295.2 102.7 299.9C102.7 304.7 106.7 308.6 111.4 308.6C116.1 308.6 120 304.6 120 299.9C120 295.2 116.1 291.3 111.4 291.3Z" fill="#313033"/>
<path id="Vector_313" d="M84.3 402C81.1 402 78.4 404.6 78.4 407.8C78.4 411.1 81.1 413.8 84.4 413.7C87.6 413.7 90.2 411 90.2 407.8C90.2 404.7 87.5 402 84.3 402Z" fill="#313033"/>
<path id="Vector_314" d="M84.5 374.4H84.3H84.0999C80.7999 374.5 78 377.3 77.9 380.8C77.8 384.3 80.8 387.3 84.3 387.4C87.8 387.5 90.8 384.5 90.9 381C90.8 377.4 88 374.5 84.5 374.4Z" fill="#313033"/>
<path id="Vector_315" d="M57.5 348.1H57.3H57.1C54.1 348.1 51.7 350.5 51.5 353.5C51.3 356.7 53.8 359.3 57 359.5C60.2 359.6 62.8 357.2 62.9 354C63 350.8 60.7 348.3 57.5 348.1Z" fill="#313033"/>
<path id="Vector_316" d="M57.3 375.6C54.4 375.6 52.1 377.8 52 380.7C51.9 383.6 54.2 386 57.2 386C60.1 386 62.4 383.8 62.5 380.9C62.5 378 60.2 375.6 57.3 375.6Z" fill="#313033"/>
<path id="Vector_317" d="M84.5 346.8H84.3H84.1C80.4 347 77.5 349.8 77.4 353.4C77.3 357.4 80.2 360.6 84.1 360.7C88 360.8 91.2 357.9 91.3 354C91.4 350.1 88.4 346.9 84.5 346.8Z" fill="#313033"/>
<path id="Vector_318" d="M57.2 293.8C53.8 293.8 51 296.6 51 300C51 303.4 53.8 306.2 57.2 306.2C60.6 306.2 63.4 303.4 63.4 300C63.4 296.6 60.6 293.8 57.2 293.8Z" fill="#313033"/>
<path id="Vector_319" d="M57.2 321.1C53.9 321.1 51.3 323.7 51.2 327C51.2 330.4 53.7999 333.1 57.0999 333.1C60.4999 333.1 63.2 330.5 63.2 327.1C63.2 323.7 60.6 321 57.2 321.1Z" fill="#313033"/>
<path id="Vector_320" d="M57.3 266.7C53.9 266.7 51.1 269.5 51 272.8C51 276.1 53.8 279 57.1 279.1C60.5 279.1 63.3 276.3 63.4 273C63.5 269.6 60.6 266.8 57.3 266.7Z" fill="#313033"/>
<path id="Vector_321" d="M83.9 430C81.1 430 78.9 432.3 79 435.1C79.1 437.8 81.3 440 84 440C86.8 440 89 437.7 89 435C89 432.2 86.7 430 83.9 430Z" fill="#313033"/>
<path id="Vector_322" d="M111.4 373.2C107.1 373.2 103.7 376.7 103.7 380.9C103.8 385.1 107.2 388.4 111.4 388.4C115.6 388.4 119 384.9 119 380.7C119 376.6 115.6 373.2 111.4 373.2Z" fill="#313033"/>
<path id="Vector_323" d="M111.5 400.9C107.5 400.9 104.4 404 104.5 407.9C104.5 411.8 107.6 414.8 111.4 414.9C115.4 414.9 118.5 411.8 118.4 407.9C118.4 404 115.3 400.9 111.5 400.9Z" fill="#313033"/>
<path id="Vector_324" d="M111.4 428.8C108 428.8 105.2 431.7 105.2 435C105.2 438.4 108.1 441.2 111.4 441.2C114.8 441.2 117.6 438.3 117.6 435C117.6 431.6 114.7 428.7 111.4 428.8Z" fill="#313033"/>
<path id="Vector_325" d="M111.4 318.6C106.7 318.6 102.9 322.3 102.9 327.1C102.9 331.8 106.7 335.6 111.4 335.5C116.1 335.5 119.8 331.8 119.8 327.1C119.9 322.4 116.2 318.6 111.4 318.6Z" fill="#313033"/>
<path id="Vector_326" d="M111.4 345.6C106.9 345.6 103.3 349.1 103.3 353.6C103.2 358.1 106.8 361.8 111.3 361.9C115.8 362 119.5 358.4 119.5 353.8C119.6 349.3 116 345.6 111.4 345.6Z" fill="#313033"/>
<path id="Vector_327" d="M84.6 265.5H84.4H84.2C80.2 265.6 77.1 268.7 76.9 272.7C76.8 276.8 79.9 280.2 84 280.3C88.2 280.5 91.6 277.3 91.7 273.1C91.9 269 88.7 265.7 84.6 265.5Z" fill="#313033"/>
<path id="Vector_328" d="M111.5 456.5C108.6 456.5 106.3 458.7 106.2 461.6C106.1 464.5 108.4 466.9 111.3 467C114.2 467 116.5 464.8 116.6 461.9C116.7 458.9 114.4 456.5 111.5 456.5Z" fill="#313033"/>
<path id="Vector_329" d="M84.4 319.8C80.3 319.8 77 323 77 327.1C77 331.1 80.2 334.4 84.2 334.4C88.3 334.4 91.6 331.2 91.6 327.1C91.6 323 88.4 319.8 84.4 319.8Z" fill="#313033"/>
<path id="Vector_330" d="M84.5 292.6H84.3H84.1C80.2 292.7 77.1 295.8 77 299.7C76.8 303.9 80.1 307.3 84.2 307.4C88.3 307.5 91.7 304.4 91.8 300.3C91.9 296.1 88.7 292.7 84.5 292.6Z" fill="#313033"/>
<path id="Vector_331" d="M110.9 485C108.8 485.1 107 486.9 107 489C107 491.2 108.9 493 111 493C113.2 493 115 491.1 115 488.9C114.9 486.8 113 484.9 110.9 485Z" fill="#313033"/>
<path id="Vector_332" d="M111.5 513C110.2 513 109.1 514.1 109 515.4C109 516.7 110.2 518 111.5 518C112.8 518 113.9 516.9 114 515.6C114 514.2 112.8 513 111.5 513Z" fill="#313033"/>
<path id="Vector_333" d="M138 484C135.3 484 133.1 486.2 133 488.9C132.9 491.7 135.2 494 137.9 494C140.7 494 142.9 491.8 143 489C143 486.3 140.7 484 138 484Z" fill="#313033"/>
<path id="Vector_334" d="M272.6 538C270.1 538 268.1 539.9 268 542.4C267.9 545 269.9 547 272.5 547C275 547 277 545 277 542.5C277 540 275.1 538 272.6 538Z" fill="#313033"/>
<path id="Vector_335" d="M273 567C271.4 567 269.9 568.5 270 570.1C270.1 571.7 271.5 573 273.1 573C274.7 573 276 571.6 276 570C276 568.4 274.6 567 273 567Z" fill="#313033"/>
<path id="Vector_336" d="M273.3 509.6C269.9 509.6 267.1 512.5 267.1 515.8C267.1 519.2 270 522 273.4 522C276.8 522 279.6 519.1 279.6 515.8C279.5 512.4 276.6 509.6 273.3 509.6Z" fill="#313033"/>
<path id="Vector_337" d="M246.6 481.4C242.6 481.4 239.3 484.6 239.2 488.6C239.1 492.7 242.4 496 246.5 496C250.5 496 253.8 492.8 253.9 488.8C253.9 484.8 250.7 481.5 246.6 481.4Z" fill="#313033"/>
<path id="Vector_338" d="M273.2 453.4C268.5 453.4 264.6 457.4 264.6 462.1C264.6 466.8 268.5 470.7 273.3 470.7C278.1 470.7 282 466.7 282 461.9C281.9 457.2 277.9 453.3 273.2 453.4Z" fill="#313033"/>
<path id="Vector_339" d="M273.3 425.2C267.9 425.2 263.6 429.5 263.5 434.9C263.5 440.4 267.8 444.7 273.3 444.7C278.7 444.7 283 440.4 283.1 435C283.1 429.6 278.8 425.2 273.3 425.2Z" fill="#313033"/>
<path id="Vector_340" d="M246.6 425.4C241.4 425.4 237 429.7 237 435C237 440.2 241.3 444.6 246.6 444.6C251.8 444.6 256.2 440.3 256.3 435C256.2 429.8 251.9 425.4 246.6 425.4Z" fill="#313033"/>
<path id="Vector_341" d="M246.5 453.6C241.8 453.6 238.1 457.3 238.1 462C238.1 466.7 241.8 470.5 246.5 470.5C251.2 470.5 255 466.8 255 462.1C255 457.4 251.3 453.6 246.5 453.6Z" fill="#313033"/>
<path id="Vector_342" d="M246.5 341.3C239.7 341.4 234.1 346.9 234.1 353.7C234.1 360.5 239.7 366.2 246.6 366.2C253.4 366.2 259.1 360.5 259.1 353.7C259 346.9 253.3 341.3 246.5 341.3Z" fill="#313033"/>
<path id="Vector_343" d="M246.6 397.3C240.8 397.3 236 402 235.9 407.9C235.8 413.7 240.6 418.5 246.4 418.6C252.2 418.7 257.2 413.8 257.2 407.9C257.2 402.1 252.4 397.3 246.6 397.3Z" fill="#313033"/>
<path id="Vector_344" d="M246.5 369.3C240.1 369.3 235 374.5 235 381C235.1 387.4 240.2 392.4 246.5 392.4C253 392.4 258.1 387.3 258 380.8C258.1 374.4 252.9 369.3 246.5 369.3Z" fill="#313033"/>
<path id="Vector_345" d="M273.5 481.2H273.3H273.1C269.2 481.4 266 484.6 265.9 488.6C265.8 492.7 269.2 496.2 273.3 496.3C277.4 496.4 280.9 493 281 488.9C281 484.8 277.6 481.3 273.5 481.2Z" fill="#313033"/>
<path id="Vector_346" d="M300.4 425.2C295 425.2 290.7 429.5 290.6 434.8C290.6 440.3 294.9 444.6 300.3 444.6C305.7 444.6 310 440.3 310.1 435C310.2 429.6 305.9 425.2 300.4 425.2Z" fill="#313033"/>
<path id="Vector_347" d="M300.5 453.4C295.8 453.3 291.8 457.2 291.7 461.9C291.6 466.7 295.6 470.7 300.3 470.7C305 470.7 308.9 466.8 309 462.1C309.1 457.4 305.2 453.4 300.5 453.4Z" fill="#313033"/>
<path id="Vector_348" d="M273.5 397.1C267.5 397 262.6 401.7 262.5 407.7C262.4 413.8 267.2 418.7 273.2 418.7C279.2 418.7 284.1 414 284.1 408C284.2 402 279.5 397.2 273.5 397.1Z" fill="#313033"/>
<path id="Vector_349" d="M192.5 482.2C189 482.1 185.9 485.1 185.8 488.6C185.7 492.2 188.7 495.3 192.4 495.3C196 495.3 198.9 492.3 199 488.8C199 485.2 196 482.2 192.5 482.2Z" fill="#313033"/>
<path id="Vector_350" d="M300.4 341C292.3 341 287.6 347.3 287.6 353.8C287.5 360.8 293.4 366.6 300.4 366.6C307.4 366.6 313.2 360.8 313.2 353.8C313.1 347.3 308.5 341 300.4 341Z" fill="#313033"/>
<path id="Vector_351" d="M300.6 397.1C294.5 397 289.6 401.8 289.6 407.8C289.6 413.8 294.3 418.6 300.3 418.7C306.3 418.7 311.2 414 311.2 408.1C311.3 402 306.6 397.2 300.6 397.1Z" fill="#313033"/>
<path id="Vector_352" d="M273.8 369C267.1 368.9 261.8 374.2 261.8 380.8C261.8 387.4 267 392.6 273.5 392.7C280.1 392.7 285.4 387.5 285.4 381C285.5 374.4 280.4 369.1 273.8 369Z" fill="#313033"/>
<path id="Vector_353" d="M300.1 567C298.5 566.9 297 568.4 297 570C297 571.6 298.4 573 300 573C301.6 573 303 571.6 303 570.1C303 568.5 301.7 567.1 300.1 567Z" fill="#313033"/>
<path id="Vector_354" d="M300.5 509.6C297.2 509.6 294.3 512.4 294.2 515.7C294.2 519 297 521.9 300.3 522C303.7 522 306.5 519.2 306.6 515.9C306.7 512.5 303.9 509.6 300.5 509.6Z" fill="#313033"/>
<path id="Vector_355" d="M299.6 538C297.1 537.9 295.1 539.9 295 542.4C294.9 544.9 296.8 546.9 299.3 547C301.8 547.1 303.9 545.2 304 542.7C304.1 540.1 302.2 538.1 299.6 538Z" fill="#313033"/>
<path id="Vector_356" d="M300.3 481.2C296.2 481.3 292.8 484.7 292.8 488.8C292.9 492.9 296.3 496.3 300.4 496.2C304.5 496.1 307.9 492.7 307.9 488.6C307.9 484.5 304.4 481.2 300.3 481.2Z" fill="#313033"/>
<path id="Vector_357" d="M300.5 369C293.9 369 288.6 374.2 288.6 380.7C288.6 387.3 293.8 392.6 300.3 392.6C307 392.7 312.3 387.4 312.3 380.8C312.3 374.3 307 369 300.5 369Z" fill="#313033"/>
<path id="Vector_358" d="M192.4 288.2C185.8 288.2 180.5 293.4 180.5 299.9C180.5 306.5 185.6 311.8 192.2 311.8C198.8 311.9 204.1 306.7 204.2 300.2C204.3 293.5 199 288.2 192.4 288.2Z" fill="#313033"/>
<path id="Vector_359" d="M192.3 315.5C185.9 315.5 180.9 320.6 180.8 327C180.8 333.5 185.9 338.6 192.3 338.6C198.8 338.6 203.9 333.5 203.8 327C203.9 320.6 198.7 315.5 192.3 315.5Z" fill="#313033"/>
<path id="Vector_360" d="M192.4 261.1C185.9 261.1 180.6 266.3 180.6 272.9C180.6 279.5 185.8 284.7 192.3 284.8C198.9 284.8 204.2 279.6 204.2 273.1C204.2 266.4 199 261.1 192.4 261.1Z" fill="#313033"/>
<path id="Vector_361" d="M219 539C216.7 539 215 540.8 215 543C215 545.2 216.7 546.9 218.9 547C221.2 547 223 545.3 223 543C223 540.7 221.3 539 219 539Z" fill="#313033"/>
<path id="Vector_362" d="M219.5 567C218 567 217 568.1 217 569.6C217 571 218.2 572.1 219.6 572C221 571.9 222 570.9 222 569.5C222 568.1 220.9 567 219.5 567Z" fill="#313033"/>
<path id="Vector_363" d="M192.4 398.3C187.1 398.3 182.8 402.7 182.8 407.9C182.8 413.1 187.2 417.5 192.4 417.5C197.7 417.5 202 413.1 202 407.9C202 402.6 197.6 398.3 192.4 398.3Z" fill="#313033"/>
<path id="Vector_364" d="M192.3 426.3C187.6 426.3 183.7 430.2 183.7 434.9C183.7 439.7 187.5 443.6 192.4 443.6C197.2 443.6 201.1 439.7 201.1 434.9C201 430.1 197.1 426.3 192.3 426.3Z" fill="#313033"/>
<path id="Vector_365" d="M192.4 454.4C188.2 454.4 184.7 457.7 184.7 461.9C184.6 466.1 188 469.6 192.2 469.6C196.5 469.7 200 466.2 200 462C200 457.9 196.6 454.4 192.4 454.4Z" fill="#313033"/>
<path id="Vector_366" d="M219.8 510.1C216.6 509.9 213.9 512.3 213.8 515.5C213.6 518.7 216.1 521.3 219.3 521.5C222.5 521.6 225.1 519.2 225.2 516C225.3 512.9 222.9 510.3 219.8 510.1Z" fill="#313033"/>
<path id="Vector_367" d="M192.6 370.4H192.3H192C186.4 370.6 182 375.1 181.9 380.7C181.9 386.4 186.5 391.1 192.2 391.2C197.9 391.3 202.7 386.7 202.8 381C202.9 375.3 198.3 370.5 192.6 370.4Z" fill="#313033"/>
<path id="Vector_368" d="M56.5 403C53.9 403 51.9 405 52 407.5C52 410 54 411.9 56.5 412C59.1 412 61.1 410 61 407.5C61 405 59 403 56.5 403Z" fill="#313033"/>
<path id="Vector_369" d="M219.6 397.8C213.9 397.8 209.4 402.2 209.3 407.8C209.2 413.5 213.7 418.1 219.5 418.1C225.2 418.1 229.6 413.7 229.7 408C229.6 402.3 225.2 397.8 219.6 397.8Z" fill="#313033"/>
<path id="Vector_370" d="M219.5 287.2C212.5 287.2 206.7 293 206.7 300C206.7 307 212.5 312.8 219.5 312.8C226.5 312.8 232.3 307 232.3 300C232.3 293 226.5 287.2 219.5 287.2Z" fill="#313033"/>
<path id="Vector_371" d="M219.5 342C212.9 342 207.6 347.2 207.6 353.7C207.6 360.3 212.7 365.6 219.3 365.6C225.9 365.7 231.2 360.5 231.3 354C231.4 347.3 226.2 342 219.5 342Z" fill="#313033"/>
<path id="Vector_372" d="M219.5 314.6C212.7 314.6 207 320.2 207 327C207 333.8 212.5 339.4 219.3 339.5C226.1 339.6 231.9 334 231.9 327.2C232 320.3 226.4 314.6 219.5 314.6Z" fill="#313033"/>
<path id="Vector_373" d="M246.6 538C244 537.9 242 539.9 242 542.5C242 545 243.9 547 246.4 547C249 547 251 545.1 251 542.5C251 540 249.1 538 246.6 538Z" fill="#313033"/>
<path id="Vector_374" d="M245.9 567C244.3 567.1 243 568.3 243 570C243 571.7 244.3 573 246 573C247.7 573 249 571.7 249 569.9C249 568.2 247.6 566.9 245.9 567Z" fill="#313033"/>
<path id="Vector_375" d="M219.6 481.8C215.6 481.8 212.5 484.8 212.5 488.8C212.5 492.7 215.5 495.7 219.4 495.8C223.4 495.8 226.5 492.8 226.5 488.8C226.5 484.9 223.4 481.8 219.6 481.8Z" fill="#313033"/>
<path id="Vector_376" d="M219.5 369.7C213.4 369.7 208.4 374.6 208.3 380.6C208.2 386.7 213.2 391.8 219.3 391.9C225.4 391.9 230.4 387 230.5 381C230.6 374.9 225.7 369.8 219.5 369.7Z" fill="#313033"/>
<path id="Vector_377" d="M219.6 425.8C214.5 425.7 210.3 429.8 210.3 434.9C210.3 440 214.3 444 219.4 444.1C224.5 444.2 228.7 440.1 228.7 435C228.7 429.9 224.7 425.9 219.6 425.8Z" fill="#313033"/>
<path id="Vector_378" d="M219.5 453.9C215 453.9 211.4 457.4 211.4 461.9C211.3 466.4 214.9 470.1 219.5 470.1C224 470.1 227.7 466.5 227.7 462C227.6 457.5 224 453.9 219.5 453.9Z" fill="#313033"/>
<path id="Vector_379" d="M246.5 509.8C243.1 509.8 240.5 512.5 240.6 515.9C240.6 519.2 243.2 521.8 246.6 521.8C250 521.8 252.6 519.2 252.6 515.8C252.6 512.4 249.9 509.8 246.5 509.8Z" fill="#313033"/>
</g>
</g>
</g>
</g>
<defs>
<clipPath id="clip0">
<rect width="573" height="573" fill="white"/>
</clipPath>
</defs>
</svg>
