<svg xmlns="http://www.w3.org/2000/svg" width="72" height="72" fill="none"><defs/><path fill="#313033" d="M0 0h72v72H0z"/><path fill="#FFDF27" d="M69 16.274a27.703 27.703 0 01-7.678 2.112 13.29 13.29 0 005.862-7.391 26.575 26.575 0 01-8.45 3.237A13.332 13.332 0 0049 10c-7.377 0-13.317 6.01-13.317 13.376 0 1.06.09 2.08.31 3.05-11.08-.542-20.882-5.87-27.467-13.988-1.15 2.002-1.824 4.293-1.824 6.76 0 4.63 2.376 8.736 5.919 11.113-2.141-.04-4.242-.664-6.021-1.647v.147c0 6.498 4.62 11.896 10.676 13.14-1.084.297-2.267.44-3.493.44-.854 0-1.715-.049-2.523-.228 1.726 5.296 6.626 9.19 12.451 9.316A26.715 26.715 0 017.19 57.182c-1.093 0-2.14-.049-3.189-.183C9.903 60.819 16.898 63 24.442 63 48.965 63 62.37 42.615 62.37 24.946c0-.591-.02-1.162-.049-1.729 2.645-1.883 4.867-4.235 6.679-6.943z"/></svg>
