<svg xmlns="http://www.w3.org/2000/svg" width="77" height="78" fill="none"><defs/><g filter="url(#filter0_d)"><rect width="45" height="40" x="11" y="9" fill="url(#paint0_radial)" rx="2"/><rect width="45" height="40" x="11" y="9" stroke="url(#paint1_linear)" stroke-width="2" rx="2"/></g><rect width="34" height="23.5" x="16.5" y="21" fill="url(#paint2_linear)" stroke="url(#paint3_linear)" stroke-dasharray="2 2" stroke-width="2" rx="1"/><g filter="url(#filter1_d)"><rect width="36" height="25.5" x="28.5" y="36.5" fill="url(#paint4_linear)" stroke="url(#paint5_linear)" rx="2"/></g><path fill="url(#paint6_linear)" fill-rule="evenodd" d="M64.123 49.48a2.123 2.123 0 013.3 1.762v6.893a6.9 6.9 0 01-6.892 6.893 8.154 8.154 0 01-5.806-2.404l-2.121-2.121a3.692 3.692 0 01-1.087-2.626v-1.606a3.69 3.69 0 011.087-2.625l1.034-1.033v-2.431a2.123 2.123 0 013.3-1.763A2.126 2.126 0 0158.94 47c.923 0 1.711.594 2.002 1.42a2.114 2.114 0 011.18-.36c.923 0 1.71.594 2.001 1.42zM60.53 63.967a5.84 5.84 0 005.834-5.832v-6.893a1.062 1.062 0 00-2.12 0v.53a.53.53 0 01-1.061 0v-1.59a1.061 1.061 0 00-2.121 0v1.59a.53.53 0 01-1.06 0v-2.651a1.062 1.062 0 00-2.122 0v2.651a.53.53 0 01-1.06 0v-1.59a1.062 1.062 0 00-2.121 0v4.772a.53.53 0 01-1.06 0v-.842l-.285.285c-.5.5-.776 1.166-.776 1.875v1.606c0 .708.276 1.373.776 1.875l2.122 2.121a7.098 7.098 0 005.054 2.093z" clip-rule="evenodd"/><g filter="url(#filter2_d)"><path fill="url(#paint7_linear)" fill-rule="evenodd" d="M66.363 58.135a5.84 5.84 0 01-5.834 5.832 7.098 7.098 0 01-5.054-2.093l-2.122-2.121a2.638 2.638 0 01-.776-1.875v-1.606c0-.709.276-1.375.776-1.875l.285-.285v.841a.53.53 0 001.06 0v-2.12V50.182a1.061 1.061 0 012.121 0v1.591a.53.53 0 001.06 0v-2.651a1.062 1.062 0 012.121 0v2.651a.53.53 0 001.06 0v-1.59a1.062 1.062 0 012.122 0v1.59a.53.53 0 001.06 0v-.53a1.062 1.062 0 012.121 0v6.893z" clip-rule="evenodd"/></g><g filter="url(#filter3_d)" opacity=".495"><path fill="url(#paint8_linear)" d="M11 13a4 4 0 014-4h37a4 4 0 014 4v3.5H11V13z"/><path stroke="url(#paint9_linear)" stroke-width="2" d="M11 13a4 4 0 014-4h37a4 4 0 014 4v3.5H11V13z"/></g><rect width="3" height="3" x="14" y="11.5" fill="url(#paint10_linear)" rx="1.5"/><rect width="3" height="3" x="19" y="11.5" fill="url(#paint11_linear)" rx="1.5"/><rect width="3" height="3" x="24" y="11.5" fill="url(#paint12_linear)" rx="1.5"/><defs><linearGradient id="paint1_linear" x1="11" x2="11" y1="9" y2="49" gradientUnits="userSpaceOnUse"><stop stop-color="#EBEBEB"/><stop offset="1" stop-color="#CECECE"/></linearGradient><linearGradient id="paint2_linear" x1="15.5" x2="15.5" y1="20" y2="45.5" gradientUnits="userSpaceOnUse"><stop stop-color="#FCFCFC"/><stop offset="1" stop-color="#F8F8F8"/></linearGradient><linearGradient id="paint3_linear" x1="15.5" x2="15.5" y1="20" y2="45.5" gradientUnits="userSpaceOnUse"><stop stop-color="#EDEDED"/><stop offset="1" stop-color="#D6D6D6"/></linearGradient><linearGradient id="paint4_linear" x1="28.5" x2="28.5" y1="36.5" y2="62" gradientUnits="userSpaceOnUse"><stop stop-color="#3466FF"/><stop offset="1" stop-color="#0F45EC"/></linearGradient><linearGradient id="paint5_linear" x1="28.5" x2="28.5" y1="36.5" y2="62" gradientUnits="userSpaceOnUse"><stop stop-color="#005BDF"/><stop offset="1" stop-color="#002EBC"/></linearGradient><linearGradient id="paint6_linear" x1="51.561" x2="51.561" y1="47" y2="64.927" gradientUnits="userSpaceOnUse"><stop stop-color="#95999D"/><stop offset="1" stop-color="#515558"/></linearGradient><linearGradient id="paint7_linear" x1="52.577" x2="52.577" y1="48.06" y2="63.967" gradientUnits="userSpaceOnUse"><stop stop-color="#FCFCFC"/><stop offset="1" stop-color="#EDEDED"/></linearGradient><linearGradient id="paint8_linear" x1="11" x2="11" y1="9" y2="16.5" gradientUnits="userSpaceOnUse"><stop stop-color="#E6E6E6"/><stop offset="1" stop-color="#C9C9C9"/></linearGradient><linearGradient id="paint9_linear" x1="11" x2="11" y1="9" y2="16.5" gradientUnits="userSpaceOnUse"><stop stop-color="#EBEBEB"/><stop offset="1" stop-color="#A9A9A9"/></linearGradient><linearGradient id="paint10_linear" x1="14" x2="14" y1="11.5" y2="14.5" gradientUnits="userSpaceOnUse"><stop stop-color="#F86800"/><stop offset="1" stop-color="#EF3700"/></linearGradient><linearGradient id="paint11_linear" x1="19" x2="19" y1="11.5" y2="14.5" gradientUnits="userSpaceOnUse"><stop stop-color="#FFDD84"/><stop offset="1" stop-color="#FFB84D"/></linearGradient><linearGradient id="paint12_linear" x1="24" x2="24" y1="11.5" y2="14.5" gradientUnits="userSpaceOnUse"><stop stop-color="#B1EC00"/><stop offset="1" stop-color="#7AD400"/></linearGradient><filter id="filter0_d" width="67" height="62" x="0" y="2" color-interpolation-filters="sRGB" filterUnits="userSpaceOnUse"><feFlood flood-opacity="0" result="BackgroundImageFix"/><feColorMatrix in="SourceAlpha" values="0 0 0 0 0 0 0 0 0 0 0 0 0 0 0 0 0 0 127 0"/><feOffset dy="4"/><feGaussianBlur stdDeviation="5"/><feColorMatrix values="0 0 0 0 0 0 0 0 0 0 0 0 0 0 0 0 0 0 0.0606698 0"/><feBlend in2="BackgroundImageFix" result="effect1_dropShadow"/><feBlend in="SourceGraphic" in2="effect1_dropShadow" result="shape"/></filter><filter id="filter1_d" width="57" height="46.5" x="18" y="28" color-interpolation-filters="sRGB" filterUnits="userSpaceOnUse"><feFlood flood-opacity="0" result="BackgroundImageFix"/><feColorMatrix in="SourceAlpha" values="0 0 0 0 0 0 0 0 0 0 0 0 0 0 0 0 0 0 127 0"/><feOffset dy="2"/><feGaussianBlur stdDeviation="5"/><feColorMatrix values="0 0 0 0 0 0 0 0 0 0 0 0 0 0 0 0 0 0 0.201076 0"/><feBlend in2="BackgroundImageFix" result="effect1_dropShadow"/><feBlend in="SourceGraphic" in2="effect1_dropShadow" result="shape"/></filter><filter id="filter2_d" width="33.786" height="35.907" x="42.577" y="42.06" color-interpolation-filters="sRGB" filterUnits="userSpaceOnUse"><feFlood flood-opacity="0" result="BackgroundImageFix"/><feColorMatrix in="SourceAlpha" values="0 0 0 0 0 0 0 0 0 0 0 0 0 0 0 0 0 0 127 0"/><feOffset dy="4"/><feGaussianBlur stdDeviation="5"/><feColorMatrix values="0 0 0 0 0 0 0 0 0 0 0 0 0 0 0 0 0 0 0.0606698 0"/><feBlend in2="BackgroundImageFix" result="effect1_dropShadow"/><feBlend in="SourceGraphic" in2="effect1_dropShadow" result="shape"/></filter><filter id="filter3_d" width="67" height="29.5" x="0" y="0" color-interpolation-filters="sRGB" filterUnits="userSpaceOnUse"><feFlood flood-opacity="0" result="BackgroundImageFix"/><feColorMatrix in="SourceAlpha" values="0 0 0 0 0 0 0 0 0 0 0 0 0 0 0 0 0 0 127 0"/><feOffset dy="2"/><feGaussianBlur stdDeviation="5"/><feColorMatrix values="0 0 0 0 0 0 0 0 0 0 0 0 0 0 0 0 0 0 0.0606698 0"/><feBlend in2="BackgroundImageFix" result="effect1_dropShadow"/><feBlend in="SourceGraphic" in2="effect1_dropShadow" result="shape"/></filter><radialGradient id="paint0_radial" cx="0" cy="0" r="1" gradientTransform="matrix(0 39.1949 -44.0942 0 33.5 29)" gradientUnits="userSpaceOnUse"><stop stop-color="#FCFCFC"/><stop offset="1" stop-color="#EDEDED"/></radialGradient></defs></svg>
