<svg xmlns="http://www.w3.org/2000/svg" width="64" height="69" fill="none"><defs/><g filter="url(#filter0_d)"><rect width="33" height="9.5" x="15.5" y="44.5" fill="url(#paint0_linear)" rx="4"/><rect width="33" height="9.5" x="15.5" y="44.5" stroke="url(#paint1_linear)" stroke-width="2" rx="4"/></g><path fill="url(#paint2_linear)" fill-rule="evenodd" d="M9.5 10a4 4 0 00-4 4v17a4 4 0 004 4h16.816L32 41l6-6h16.5a4 4 0 004-4V14a4 4 0 00-4-4h-45z" clip-rule="evenodd"/><path fill="url(#paint3_linear)" d="M26.316 35l.726-.688-.726-.312v1zM32 41l-.726.688 1.433.02L32 41zm6-6v-1l-.707.293L38 35zM6.5 14a3 3 0 013-3V9a5 5 0 00-5 5h2zm0 17V14h-2v17h2zm3 3a3 3 0 01-3-3h-2a5 5 0 005 5v-2zm16.816 0H9.5v2h16.816v-2zm-.726 1.688l5.684 6 1.452-1.376-5.684-6-1.452 1.376zm7.117 6.02l6-6-1.414-1.415-6 6 1.414 1.414zM54.5 34H38v2h16.5v-2zm3-3a3 3 0 01-3 3v2a5 5 0 005-5h-2zm0-17v17h2V14h-2zm-3-3a3 3 0 013 3h2a5 5 0 00-5-5v2zm-45 0h45V9h-45v2z"/><g opacity=".345"><path fill="#fff" fill-rule="evenodd" d="M25.5 22.622a2.5 2.5 0 11-5 0 2.5 2.5 0 015 0z" clip-rule="evenodd"/><path stroke="url(#paint4_linear)" stroke-linejoin="bevel" stroke-width="2" d="M25.5 22.622a2.5 2.5 0 11-5 0 2.5 2.5 0 015 0"/></g><g opacity=".345"><path fill="#fff" fill-rule="evenodd" d="M34.5 22.622a2.5 2.5 0 11-5 0 2.5 2.5 0 015 0z" clip-rule="evenodd"/><path stroke="url(#paint5_linear)" stroke-linejoin="bevel" stroke-width="2" d="M34.5 22.622a2.5 2.5 0 11-5 0 2.5 2.5 0 015 0"/></g><g opacity=".345"><path fill="#fff" fill-rule="evenodd" d="M43.5 22.622a2.5 2.5 0 11-5 0 2.5 2.5 0 015 0z" clip-rule="evenodd"/><path stroke="url(#paint6_linear)" stroke-linejoin="bevel" stroke-width="2" d="M43.5 22.622a2.5 2.5 0 11-5 0 2.5 2.5 0 015 0"/></g><defs><linearGradient id="paint0_linear" x1="15.5" x2="15.5" y1="44.5" y2="54" gradientUnits="userSpaceOnUse"><stop stop-color="#FCFCFC"/><stop offset="1" stop-color="#EDEDED"/></linearGradient><linearGradient id="paint1_linear" x1="15.5" x2="15.5" y1="44.5" y2="54" gradientUnits="userSpaceOnUse"><stop stop-color="#EBEBEB"/><stop offset="1" stop-color="#CECECE"/></linearGradient><linearGradient id="paint2_linear" x1="6.181" x2="6.181" y1="10" y2="40.203" gradientUnits="userSpaceOnUse"><stop stop-color="#FFA726"/><stop offset="1" stop-color="#FB8C00"/></linearGradient><linearGradient id="paint3_linear" x1="5.5" x2="5.5" y1="10" y2="41" gradientUnits="userSpaceOnUse"><stop stop-color="#FFBE56"/><stop offset="1" stop-color="#FC6A08"/></linearGradient><linearGradient id="paint4_linear" x1="20.5" x2="20.5" y1="20.122" y2="25.122" gradientUnits="userSpaceOnUse"><stop stop-color="#E99C21"/><stop offset="1" stop-color="#C56727"/></linearGradient><linearGradient id="paint5_linear" x1="29.5" x2="29.5" y1="20.122" y2="25.122" gradientUnits="userSpaceOnUse"><stop stop-color="#E99C21"/><stop offset="1" stop-color="#C56727"/></linearGradient><linearGradient id="paint6_linear" x1="38.5" x2="38.5" y1="20.122" y2="25.122" gradientUnits="userSpaceOnUse"><stop stop-color="#E99C21"/><stop offset="1" stop-color="#C56727"/></linearGradient><filter id="filter0_d" width="55" height="31.5" x="4.5" y="37.5" color-interpolation-filters="sRGB" filterUnits="userSpaceOnUse"><feFlood flood-opacity="0" result="BackgroundImageFix"/><feColorMatrix in="SourceAlpha" values="0 0 0 0 0 0 0 0 0 0 0 0 0 0 0 0 0 0 127 0"/><feOffset dy="4"/><feGaussianBlur stdDeviation="5"/><feColorMatrix values="0 0 0 0 0 0 0 0 0 0 0 0 0 0 0 0 0 0 0.0606698 0"/><feBlend in2="BackgroundImageFix" result="effect1_dropShadow"/><feBlend in="SourceGraphic" in2="effect1_dropShadow" result="shape"/></filter></defs></svg>
