<svg width="32" height="32" viewBox="0 0 32 32" fill="none" xmlns="http://www.w3.org/2000/svg">
<path d="M19 26.0626C19 28.018 17.6031 29.5 15.9999 29.5C14.3968 29.5 13 28.0181 13 26.0626C13 24.1071 14.3968 22.625 15.9999 22.625C17.603 22.625 19 24.1071 19 26.0626Z" fill="url(#paint0_linear)" stroke="url(#paint1_linear)" stroke-linejoin="bevel"/>
<path d="M19.5 26.0626C19.5 28.2372 17.9329 30 15.9999 30C14.0669 30 12.5 28.2372 12.5 26.0626C12.5 23.888 14.0669 22.125 15.9999 22.125C17.9329 22.125 19.5 23.888 19.5 26.0626Z" fill="url(#paint2_linear)"/>
<path d="M16.0182 6.1666C15.6504 6.1666 15.3516 5.86787 15.3516 5.5V3.1666C15.3516 2.79888 15.6504 2.5 16.0182 2.5C16.3861 2.5 16.685 2.79894 16.685 3.1666V5.5C16.685 5.86781 16.3862 6.1666 16.0182 6.1666Z" fill="url(#paint3_linear)" stroke="url(#paint4_linear)" stroke-linejoin="bevel"/>
<path d="M23.685 15.7526C23.685 18.2082 24.7609 20.5254 26.6363 22.1114C26.9904 22.4153 27.185 22.8426 27.185 23.2916C27.185 24.1414 26.493 24.8334 25.6432 24.8334H6.39316C5.54354 24.8334 4.85156 24.1415 4.85156 23.2916C4.85156 22.8404 5.04777 22.414 5.3893 22.1221C7.27521 20.5272 8.35156 18.2087 8.35156 15.7526V12.5C8.35156 8.27278 11.7921 4.83337 16.0182 4.83337C20.2444 4.83337 23.685 8.27278 23.685 12.5V15.7526Z" fill="url(#paint5_linear)" stroke="url(#paint6_linear)" stroke-linejoin="bevel"/>
<defs>
<linearGradient id="paint0_linear" x1="12.5899" y1="22.125" x2="12.5899" y2="29.7976" gradientUnits="userSpaceOnUse">
<stop stop-color="#FFA726"/>
<stop offset="1" stop-color="#FB8C00"/>
</linearGradient>
<linearGradient id="paint1_linear" x1="12.5" y1="22.125" x2="12.5" y2="30" gradientUnits="userSpaceOnUse">
<stop stop-color="#FFBE56"/>
<stop offset="1" stop-color="#FC6A08"/>
</linearGradient>
<linearGradient id="paint2_linear" x1="12.5899" y1="22.125" x2="12.5899" y2="29.7976" gradientUnits="userSpaceOnUse">
<stop stop-color="#7D1700"/>
<stop offset="1" stop-color="#8A1900" stop-opacity="0"/>
</linearGradient>
<linearGradient id="paint3_linear" x1="14.8815" y1="2" x2="14.8815" y2="6.54667" gradientUnits="userSpaceOnUse">
<stop stop-color="#FFA726"/>
<stop offset="1" stop-color="#FB8C00"/>
</linearGradient>
<linearGradient id="paint4_linear" x1="14.8516" y1="2" x2="14.8516" y2="6.6666" gradientUnits="userSpaceOnUse">
<stop stop-color="#FFBE56"/>
<stop offset="1" stop-color="#FC6A08"/>
</linearGradient>
<linearGradient id="paint5_linear" x1="4.65138" y1="4.33337" x2="4.65138" y2="24.7937" gradientUnits="userSpaceOnUse">
<stop stop-color="#FFA726"/>
<stop offset="1" stop-color="#FB8C00"/>
</linearGradient>
<linearGradient id="paint6_linear" x1="4.35156" y1="4.33337" x2="4.35156" y2="25.3334" gradientUnits="userSpaceOnUse">
<stop stop-color="#FFBE56"/>
<stop offset="1" stop-color="#FC6A08"/>
</linearGradient>
</defs>
</svg>
