<svg xmlns="http://www.w3.org/2000/svg" width="76" height="72" fill="none"><defs/><g filter="url(#filter0_d)"><rect width="54" height="48" x="11" y="9" fill="url(#paint0_radial)" rx="2"/><rect width="54" height="48" x="11" y="9" stroke="url(#paint1_linear)" stroke-width="2" rx="2"/></g><g filter="url(#filter1_d)" opacity=".495"><path fill="url(#paint2_linear)" d="M11 13a4 4 0 014-4h46a4 4 0 014 4v3.5H11V13z"/><path stroke="url(#paint3_linear)" stroke-width="2" d="M11 13a4 4 0 014-4h46a4 4 0 014 4v3.5H11V13z"/></g><rect width="3" height="3" x="14" y="11.5" fill="url(#paint4_linear)" rx="1.5"/><rect width="3" height="3" x="19" y="11.5" fill="url(#paint5_linear)" rx="1.5"/><rect width="3" height="3" x="24" y="11.5" fill="url(#paint6_linear)" rx="1.5"/><rect width="50" height="5" x="13" y="25" fill="url(#paint7_linear)" rx="2"/><rect width="50" height="5" x="13" y="32" fill="url(#paint8_linear)" rx="2"/><rect width="50" height="5" x="13" y="39" fill="url(#paint9_linear)" rx="2"/><rect width="50" height="5" x="13" y="46" fill="url(#paint10_linear)" rx="2"/><g filter="url(#filter2_d)" opacity=".54"><path fill="url(#paint11_radial)" d="M27 20.5h1V54h-1z"/><path stroke="url(#paint12_linear)" stroke-width="2" d="M27 20.5h1V54h-1z"/></g><g filter="url(#filter3_d)" opacity=".54"><path fill="url(#paint13_radial)" d="M47 20.5h1V54h-1z"/><path stroke="url(#paint14_linear)" stroke-width="2" d="M47 20.5h1V54h-1z"/></g><rect width="11" height="2.5" x="13" y="20.5" fill="url(#paint15_linear)" rx="1"/><rect width="11" height="2.5" x="32.5" y="20.5" fill="url(#paint16_linear)" rx="1"/><rect width="11" height="2.5" x="52" y="20.5" fill="url(#paint17_linear)" rx="1"/><defs><linearGradient id="paint1_linear" x1="11" x2="11" y1="9" y2="57" gradientUnits="userSpaceOnUse"><stop stop-color="#EBEBEB"/><stop offset="1" stop-color="#CECECE"/></linearGradient><linearGradient id="paint2_linear" x1="11" x2="11" y1="9" y2="16.5" gradientUnits="userSpaceOnUse"><stop stop-color="#E6E6E6"/><stop offset="1" stop-color="#C9C9C9"/></linearGradient><linearGradient id="paint3_linear" x1="11" x2="11" y1="9" y2="16.5" gradientUnits="userSpaceOnUse"><stop stop-color="#EBEBEB"/><stop offset="1" stop-color="#A9A9A9"/></linearGradient><linearGradient id="paint4_linear" x1="14" x2="14" y1="11.5" y2="14.5" gradientUnits="userSpaceOnUse"><stop stop-color="#F86800"/><stop offset="1" stop-color="#EF3700"/></linearGradient><linearGradient id="paint5_linear" x1="19" x2="19" y1="11.5" y2="14.5" gradientUnits="userSpaceOnUse"><stop stop-color="#FFDD84"/><stop offset="1" stop-color="#FFB84D"/></linearGradient><linearGradient id="paint6_linear" x1="24" x2="24" y1="11.5" y2="14.5" gradientUnits="userSpaceOnUse"><stop stop-color="#B1EC00"/><stop offset="1" stop-color="#7AD400"/></linearGradient><linearGradient id="paint7_linear" x1="63" x2="13" y1="25" y2="25" gradientUnits="userSpaceOnUse"><stop stop-color="#34FF82"/><stop offset="1" stop-color="#64FFB9"/></linearGradient><linearGradient id="paint8_linear" x1="13" x2="13" y1="32" y2="37" gradientUnits="userSpaceOnUse"><stop stop-color="#FCFCFC"/><stop offset="1" stop-color="#EDEDED"/></linearGradient><linearGradient id="paint9_linear" x1="13" x2="13" y1="39" y2="44" gradientUnits="userSpaceOnUse"><stop stop-color="#FCFCFC"/><stop offset="1" stop-color="#EDEDED"/></linearGradient><linearGradient id="paint10_linear" x1="13" x2="13" y1="46" y2="51" gradientUnits="userSpaceOnUse"><stop stop-color="#FCFCFC"/><stop offset="1" stop-color="#EDEDED"/></linearGradient><linearGradient id="paint12_linear" x1="27" x2="27" y1="20.5" y2="54" gradientUnits="userSpaceOnUse"><stop stop-color="#EBEBEB"/><stop offset="1" stop-color="#CECECE"/></linearGradient><linearGradient id="paint14_linear" x1="47" x2="47" y1="20.5" y2="54" gradientUnits="userSpaceOnUse"><stop stop-color="#EBEBEB"/><stop offset="1" stop-color="#CECECE"/></linearGradient><linearGradient id="paint15_linear" x1="13" x2="13" y1="20.5" y2="23" gradientUnits="userSpaceOnUse"><stop stop-color="#C1C8CE"/><stop offset="1" stop-color="#8E97A0"/></linearGradient><linearGradient id="paint16_linear" x1="32.5" x2="32.5" y1="20.5" y2="23" gradientUnits="userSpaceOnUse"><stop stop-color="#C1C8CE"/><stop offset="1" stop-color="#8E97A0"/></linearGradient><linearGradient id="paint17_linear" x1="52" x2="52" y1="20.5" y2="23" gradientUnits="userSpaceOnUse"><stop stop-color="#C1C8CE"/><stop offset="1" stop-color="#8E97A0"/></linearGradient><filter id="filter0_d" width="76" height="70" x="0" y="2" color-interpolation-filters="sRGB" filterUnits="userSpaceOnUse"><feFlood flood-opacity="0" result="BackgroundImageFix"/><feColorMatrix in="SourceAlpha" values="0 0 0 0 0 0 0 0 0 0 0 0 0 0 0 0 0 0 127 0"/><feOffset dy="4"/><feGaussianBlur stdDeviation="5"/><feColorMatrix values="0 0 0 0 0 0 0 0 0 0 0 0 0 0 0 0 0 0 0.0606698 0"/><feBlend in2="BackgroundImageFix" result="effect1_dropShadow"/><feBlend in="SourceGraphic" in2="effect1_dropShadow" result="shape"/></filter><filter id="filter1_d" width="76" height="29.5" x="0" y="0" color-interpolation-filters="sRGB" filterUnits="userSpaceOnUse"><feFlood flood-opacity="0" result="BackgroundImageFix"/><feColorMatrix in="SourceAlpha" values="0 0 0 0 0 0 0 0 0 0 0 0 0 0 0 0 0 0 127 0"/><feOffset dy="2"/><feGaussianBlur stdDeviation="5"/><feColorMatrix values="0 0 0 0 0 0 0 0 0 0 0 0 0 0 0 0 0 0 0.0606698 0"/><feBlend in2="BackgroundImageFix" result="effect1_dropShadow"/><feBlend in="SourceGraphic" in2="effect1_dropShadow" result="shape"/></filter><filter id="filter2_d" width="23" height="55.5" x="16" y="13.5" color-interpolation-filters="sRGB" filterUnits="userSpaceOnUse"><feFlood flood-opacity="0" result="BackgroundImageFix"/><feColorMatrix in="SourceAlpha" values="0 0 0 0 0 0 0 0 0 0 0 0 0 0 0 0 0 0 127 0"/><feOffset dy="4"/><feGaussianBlur stdDeviation="5"/><feColorMatrix values="0 0 0 0 0 0 0 0 0 0 0 0 0 0 0 0 0 0 0.0606698 0"/><feBlend in2="BackgroundImageFix" result="effect1_dropShadow"/><feBlend in="SourceGraphic" in2="effect1_dropShadow" result="shape"/></filter><filter id="filter3_d" width="23" height="55.5" x="36" y="13.5" color-interpolation-filters="sRGB" filterUnits="userSpaceOnUse"><feFlood flood-opacity="0" result="BackgroundImageFix"/><feColorMatrix in="SourceAlpha" values="0 0 0 0 0 0 0 0 0 0 0 0 0 0 0 0 0 0 127 0"/><feOffset dy="4"/><feGaussianBlur stdDeviation="5"/><feColorMatrix values="0 0 0 0 0 0 0 0 0 0 0 0 0 0 0 0 0 0 0.0606698 0"/><feBlend in2="BackgroundImageFix" result="effect1_dropShadow"/><feBlend in="SourceGraphic" in2="effect1_dropShadow" result="shape"/></filter><radialGradient id="paint0_radial" cx="0" cy="0" r="1" gradientTransform="matrix(0 47.0338 -52.9131 0 38 33)" gradientUnits="userSpaceOnUse"><stop stop-color="#FCFCFC"/><stop offset="1" stop-color="#EDEDED"/></radialGradient><radialGradient id="paint11_radial" cx="0" cy="0" r="1" gradientTransform="matrix(0 32.8257 -.97987 0 27.5 37.25)" gradientUnits="userSpaceOnUse"><stop stop-color="#FCFCFC"/><stop offset="1" stop-color="#EDEDED"/></radialGradient><radialGradient id="paint13_radial" cx="0" cy="0" r="1" gradientTransform="matrix(0 32.8257 -.97987 0 47.5 37.25)" gradientUnits="userSpaceOnUse"><stop stop-color="#FCFCFC"/><stop offset="1" stop-color="#EDEDED"/></radialGradient></defs></svg>
